<svg xmlns="http://www.w3.org/2000/svg" xmlns:xlink="http://www.w3.org/1999/xlink" width="90" height="90" viewBox="0 0 90 90"><defs><style>.a{fill:#ffa0a0;opacity:0;}.b{opacity:0.55;}.c{fill:url(#a);}.d{opacity:0.15;}.e{fill:#687eea;}.f{fill:url(#b);}.g{fill:#6f7d9a;}.h{fill:#314564;}.i{fill:#70c6ff;}.j{fill:url(#d);}.k{fill:#fff;}.l{fill:none;stroke:#fff;stroke-linecap:round;stroke-miterlimit:10;stroke-width:4px;}</style><linearGradient id="a" y1="0.5" x2="1" y2="0.5" gradientUnits="objectBoundingBox"><stop offset="0" stop-color="#bccbff"/><stop offset="1" stop-color="#edf2fe" stop-opacity="0.549"/></linearGradient><linearGradient id="b" x1="0.153" y1="0.483" x2="0.639" y2="0.507" xlink:href="#a"/><linearGradient id="d" x1="0.062" y1="0.438" x2="0.906" y2="0.438" gradientUnits="objectBoundingBox"><stop offset="0" stop-color="#3c79f0"/><stop offset="0.964" stop-color="#3e97f6"/></linearGradient></defs><g transform="translate(-786 -307)"><rect class="a" width="90" height="90" transform="translate(786 307)"/><g transform="translate(-507.553 -144.848)"><g class="b" transform="translate(1319.251 502.25)"><g transform="translate(0)"><path class="c" d="M1346.168,542.984l-14.626-7.923a1.492,1.492,0,0,1,0-2.53l14.626-7.923a4.234,4.234,0,0,1,4.485,0l14.627,7.923a1.492,1.492,0,0,1,0,2.53l-14.627,7.923A4.234,4.234,0,0,1,1346.168,542.984Z" transform="translate(-1330.84 -523.965)"/></g><g transform="translate(0)"><g class="d"><path class="e" d="M1346.168,542.984l-14.626-7.923a1.492,1.492,0,0,1,0-2.53l14.626-7.923a4.234,4.234,0,0,1,4.485,0l14.627,7.923a1.492,1.492,0,0,1,0,2.53l-14.627,7.923A4.234,4.234,0,0,1,1346.168,542.984Z" transform="translate(-1330.84 -523.965)"/></g></g></g><g class="b" transform="translate(1295.553 479.477)"><path class="f" d="M1333.312,536.908l-36.031-19.518a3.674,3.674,0,0,1,0-6.233l36.031-19.518a10.431,10.431,0,0,1,11.049,0l36.03,19.518a3.674,3.674,0,0,1,0,6.233l-36.03,19.518A10.431,10.431,0,0,1,1333.312,536.908Z" transform="translate(-1295.553 -490.056)"/><g class="d"><path class="e" d="M1333.312,536.908l-36.031-19.518a3.674,3.674,0,0,1,0-6.233l36.031-19.518a10.431,10.431,0,0,1,11.049,0l36.03,19.518a3.674,3.674,0,0,1,0,6.233l-36.03,19.518A10.431,10.431,0,0,1,1333.312,536.908Z" transform="translate(-1295.553 -490.056)"/></g></g><g class="b" transform="translate(1313.552 505.041)"><path class="c" d="M1345.937,557.383l-22.5-12.19a2.3,2.3,0,0,1,0-3.893l22.5-12.189a6.511,6.511,0,0,1,6.9,0l22.5,12.189a2.3,2.3,0,0,1,0,3.893l-22.5,12.19A6.514,6.514,0,0,1,1345.937,557.383Z" transform="translate(-1322.355 -528.122)"/><g class="d"><path class="e" d="M1345.937,557.383l-22.5-12.19a2.3,2.3,0,0,1,0-3.893l22.5-12.189a6.511,6.511,0,0,1,6.9,0l22.5,12.189a2.3,2.3,0,0,1,0,3.893l-22.5,12.19A6.514,6.514,0,0,1,1345.937,557.383Z" transform="translate(-1322.355 -528.122)"/></g></g><path class="g" d="M1366.128,460.327l-2.119-1.5-.046-.033-.035-.024h0a4.941,4.941,0,0,0-3.364-.886l-51.772,7.869c-2.57.391-4.172,1.941-4.218,4.081l-.639,29.839a3.138,3.138,0,0,0,1.3,2.324h0l0,0a5.427,5.427,0,0,0,.642.455l1.929,1.367s-.162-.349-.331-.7a4.109,4.109,0,0,0,1.553.088l51.772-7.869c2.57-.391,4.172-1.94,4.217-4.081l.639-29.838a2.448,2.448,0,0,0-.438-1.37Z" transform="translate(-2.752 0)"/><path class="h" d="M1364.057,497.254l-51.773,7.869c-2.285.348-5.137-1.629-5.1-3.532l.639-29.839c.047-2.14,1.647-3.69,4.218-4.081l51.772-7.869a3.431,3.431,0,0,1,4.062,3.289l.4,30.082C1368.228,495.314,1366.627,496.863,1364.057,497.254Z" transform="translate(-3.821 -0.627)"/><path class="i" d="M1385.62,472.365l-2.119-1.5-.046-.033-.035-.025h0a4.939,4.939,0,0,0-3.364-.886l-51.772,7.869c-2.57.391-4.172,1.94-4.217,4.081l-.639,29.838a3.137,3.137,0,0,0,1.3,2.325h0l0,0a5.553,5.553,0,0,0,.641.455l1.929,1.367s-.162-.35-.331-.7a4.117,4.117,0,0,0,1.552.088l51.773-7.87c2.57-.39,4.171-1.94,4.218-4.08l.639-29.839a2.449,2.449,0,0,0-.438-1.369Z" transform="translate(-9.154 -3.954)"/><path class="j" d="M1383.549,509.292l-51.772,7.87c-2.285.347-5.137-1.63-5.1-3.533l.639-29.839c.046-2.14,1.647-3.69,4.217-4.08l51.772-7.869a3.43,3.43,0,0,1,4.062,3.289l.4,30.083C1387.721,507.352,1386.119,508.9,1383.549,509.292Z" transform="translate(-10.223 -4.581)"/><path class="k" d="M1359.765,496.826c.012,3.172-2.776,6.148-6.264,6.688s-6.3-1.572-6.307-4.743,2.776-6.115,6.264-6.655S1359.753,493.654,1359.765,496.826Zm1.764,14.7L1345,514.085c-.727.112-1.056-.332-1.058-.993a8.546,8.546,0,0,1,7.349-8.178l3.887-.6c4.215-.652,7.9,1.919,7.911,5.851V510.1C1363.125,510.752,1362.255,511.383,1361.529,511.528Z" transform="translate(-15.892 -11.227)"/><line class="l" y1="2.38" x2="14.238" transform="translate(1352.861 483.928)"/><line class="l" y1="1.392" x2="8.326" transform="translate(1358.62 492.55)"/></g></g></svg>