<svg xmlns="http://www.w3.org/2000/svg" width="16" height="16" viewBox="0 0 16 16"><defs><style>.a{fill:#f6c6c6;opacity:0;}.b{fill:#444552;}.c{fill:#0477fd;}</style></defs><g transform="translate(-33 -214)"><rect class="a" width="16" height="16" transform="translate(33 214)"/><g transform="translate(-801.385 114.341)"><path class="b" d="M845.869,114.9H838.9a3.763,3.763,0,0,1-3.758-3.758v-6.968a3.763,3.763,0,0,1,3.758-3.758h6.968a3.763,3.763,0,0,1,3.758,3.758v6.968A3.763,3.763,0,0,1,845.869,114.9ZM838.9,102.01a2.168,2.168,0,0,0-2.166,2.166v6.968a2.168,2.168,0,0,0,2.166,2.166h6.968a2.168,2.168,0,0,0,2.166-2.166v-6.968a2.168,2.168,0,0,0-2.166-2.166Z"/><path class="c" d="M845.582,104.578l-2.363.549a.413.413,0,0,0-.178.714l.472.409-1.168,1.153-.9-.873a.783.783,0,0,0-1.077-.008l-1.917,1.8a.78.78,0,0,0,1.068,1.139l1.375-1.291.915.885a.781.781,0,0,0,1.092-.005l1.795-1.772.441.383a.414.414,0,0,0,.681-.265l.27-2.368A.413.413,0,0,0,845.582,104.578Z" transform="translate(0.28 0.38)"/></g></g></svg>