<svg xmlns="http://www.w3.org/2000/svg" xmlns:xlink="http://www.w3.org/1999/xlink" width="32" height="32" viewBox="0 0 32 32"><defs><style>.a{fill:none;}.b{fill:url(#a);}.c{clip-path:url(#b);}.d{fill:#f5f7fe;}.e{fill:#0477fd;}</style><linearGradient id="a" y1="0.5" x2="1" y2="0.5" gradientUnits="objectBoundingBox"><stop offset="0" stop-color="#58a2fc"/><stop offset="1" stop-color="#326efb"/></linearGradient><clipPath id="b"><circle class="a" cx="16" cy="16" r="16"/></clipPath></defs><g transform="translate(-804.045 -141.232)"><circle class="b" cx="16" cy="16" r="16" transform="translate(804.045 141.232)"/><g transform="translate(804.045 141.232)"><g class="c"><rect class="d" width="18.68" height="20.532" rx="1.976" transform="translate(6.66 12.82)"/></g></g><path class="d" d="M815.543,156.7a.75.75,0,0,1-.75-.75v-4.071a.75.75,0,1,1,1.5,0v4.071A.75.75,0,0,1,815.543,156.7Z" transform="translate(0.126 0.134)"/><path class="d" d="M824.082,156.7a.75.75,0,0,1-.75-.75v-4.071a.75.75,0,1,1,1.5,0v4.071A.75.75,0,0,1,824.082,156.7Z" transform="translate(0.226 0.134)"/><path class="e" d="M823.5,168.059H816.59a.9.9,0,1,1,0-1.8H823.5a.9.9,0,1,1,0,1.8Z" transform="translate(0.179 0.296)"/><path class="e" d="M815.78,163.357a.919.919,0,0,1-.647-.263.938.938,0,0,1-.017-1.313l2.353-2.337a1.054,1.054,0,0,1,1.476-.013l1.386,1.375,3.328-3.218a.927.927,0,0,1,1.3,1.324l-3.9,3.773a1.057,1.057,0,0,1-1.467,0l-1.379-1.369-1.779,1.767A.92.92,0,0,1,815.78,163.357Z" transform="translate(0.18 0.222)"/></g></svg>