<svg xmlns="http://www.w3.org/2000/svg" width="53.974" height="48" viewBox="0 0 53.974 48"><defs><style>.a{fill:#2f88ff;}.a,.c{stroke:#2f88ff;}.b,.d{fill:#fff;}.b{font-size:22px;font-family:PingFangSC, 苹方-简;}.c,.g{fill:none;}.e{fill:#98cf08;}.f{stroke:none;}</style></defs><g transform="translate(-745 -123)"><g transform="translate(-20 3)"><g class="a" transform="translate(769 124)"><circle class="f" cx="20" cy="20" r="20"/><circle class="g" cx="20" cy="20" r="19.5"/></g><text class="b" transform="translate(784 152)"><tspan x="0" y="0">1</tspan></text><g class="c" transform="translate(765 120)"><circle class="f" cx="24" cy="24" r="24"/><circle class="g" cx="24" cy="24" r="23.5"/></g></g><g transform="translate(-107.586 -702.565)"><path class="d" d="M901.174,859.5h0a.6.6,0,0,0-.854,0l-4.776,4.776-2.761-2.76h0a.6.6,0,0,0-.853,0l-.29.29h0a.6.6,0,0,0,0,.853l3.435,3.45a.606.606,0,0,0,.545.164.59.59,0,0,0,.414-.181l5.448-5.448h0a.6.6,0,0,0,0-.853Z" transform="translate(0.175 0.242)"/><path class="e" d="M896.573,852.591a9.982,9.982,0,1,0,.01,0Zm5.085,8.3-5.448,5.448a.588.588,0,0,1-.414.181.606.606,0,0,1-.545-.164l-3.435-3.45a.6.6,0,0,1,0-.853h0l.29-.29a.6.6,0,0,1,.853,0h0l2.761,2.76,4.776-4.776a.6.6,0,0,1,.853,0h0l.311.29a.6.6,0,0,1,0,.853h0Z" transform="translate(0 0)"/></g></g></svg>