<svg xmlns="http://www.w3.org/2000/svg" xmlns:xlink="http://www.w3.org/1999/xlink" width="28" height="28" viewBox="0 0 28 28"><defs><style>.a{fill:#fff;}.b{clip-path:url(#a);}</style><clipPath id="a"><rect class="a" width="28" height="28"/></clipPath></defs><g transform="translate(0 0)"><g class="b" transform="translate(0 0)"><path class="a" d="M14,0A14,14,0,1,0,28,14,14,14,0,0,0,14,0m.293,5.7a3.7,3.7,0,1,1-3.7,3.7,3.7,3.7,0,0,1,3.7-3.7m5.571,14.948a17.471,17.471,0,0,1-5.571.885,17.461,17.461,0,0,1-5.57-.885,1.363,1.363,0,0,1-.944-1.426,6.952,6.952,0,0,1,4-5.926L13.728,16.3a.675.675,0,0,0,1.131,0l1.95-3.011a6.953,6.953,0,0,1,4,5.926,1.364,1.364,0,0,1-.944,1.426" transform="translate(0 0)"/></g></g></svg>