<svg xmlns="http://www.w3.org/2000/svg" width="22" height="22" viewBox="0 0 22 22"><defs><style>.a{fill:#ffb9b9;opacity:0;}.b{fill:#fff;}</style></defs><g transform="translate(-1619 -24)"><rect class="a" width="22" height="22" transform="translate(1619 24)"/><path class="b" d="M94.588,0a.921.921,0,0,1,.919.852l0,.069V2c3.739.336,6.639,3.811,6.639,8v2.735a5.081,5.081,0,0,0,1.092,3.189l.376.464a1.6,1.6,0,0,1-1.157,2.627H98.4a3.887,3.887,0,0,1-7.449,0H86.885a1.6,1.6,0,0,1-1.157-2.627l.376-.464A5.079,5.079,0,0,0,87.2,12.737V10c0-4.129,2.814-7.562,6.472-7.986V.921A.921.921,0,0,1,94.588,0Zm1.8,19.016H92.955a2.043,2.043,0,0,0,3.434,0Zm-1.474-15.2H94.43c-2.908,0-5.32,2.668-5.39,6.037l0,.151v2.735a6.919,6.919,0,0,1-1.5,4.348l-.073.089h14.42l-.072-.089a6.9,6.9,0,0,1-1.5-4.164l0-.185V10c0-3.44-2.44-6.187-5.392-6.187Z" transform="translate(1535.328 24.104)"/></g></svg>