<svg xmlns="http://www.w3.org/2000/svg" width="16" height="16" viewBox="0 0 16 16"><defs><style>.a{fill:#f6c6c6;opacity:0;}.b{fill:#444552;}.c{fill:#0477fd;}</style></defs><g transform="translate(-33 -473)"><rect class="a" width="16" height="16" transform="translate(33 473)"/><g transform="translate(-554.463 111.476)"><path class="b" d="M600.086,367.021a5.12,5.12,0,0,0-10.1,1.066,4.14,4.14,0,0,0,1.815,7.863h6.854a4.614,4.614,0,0,0,4.609-4.609A4.429,4.429,0,0,0,600.086,367.021Zm-8.352,2.23-.053-.223a3.48,3.48,0,0,1-.1-.806,3.529,3.529,0,1,1,7.058.014l.1.1.094,0a3.011,3.011,0,0,1-.169,6.019h-6.854a2.549,2.549,0,0,1-.3-5.081Z"/><path class="c" d="M597.685,369.7a.73.73,0,0,0-1.034,0l-.558.558v-2.579a.732.732,0,1,0-1.463,0v2.565l-.545-.544a.731.731,0,0,0-1.034,1.034l1.765,1.758a.718.718,0,0,0,.546.254.808.808,0,0,0,.572-.261l1.751-1.751a.73.73,0,0,0,0-1.034Z" transform="translate(-0.083 -0.062)"/></g></g></svg>