<svg xmlns="http://www.w3.org/2000/svg" width="16" height="16" viewBox="0 0 16 16"><defs><style>.a{fill:#f6c6c6;opacity:0;}.b{fill:#0477fd;}.c{fill:#444552;}</style></defs><g transform="translate(-33 -245)"><rect class="a" width="16" height="16" transform="translate(33 245)"/><g transform="translate(-511.027 -117.795)"><path class="b" d="M551.288,367.571h-2.267a.865.865,0,1,0,0,1.73h2.267a.865.865,0,0,0,0-1.73Z" transform="translate(0.229 0.258)"/><path class="c" d="M559.04,366.925l-2.841-2.916a.871.871,0,0,0-.62-.262h-8.248a2.563,2.563,0,0,0-2.561,2.56v8.976a2.563,2.563,0,0,0,2.561,2.56h9.393a2.562,2.562,0,0,0,2.56-2.56v-7.753A.863.863,0,0,0,559.04,366.925Zm-12.539-.618a.831.831,0,0,1,.831-.829l7.848-.035,2.375,2.391v7.449a.831.831,0,0,1-.83.831h-9.393a.831.831,0,0,1-.831-.831Z"/><path class="b" d="M554.135,370.516h-4.677a1.351,1.351,0,0,0-1.27,1.443v3.7h1.73v-3.411h3.755v3.411h1.73v-3.7A1.351,1.351,0,0,0,554.135,370.516Z" transform="translate(0.231 0.457)"/></g></g></svg>