<svg xmlns="http://www.w3.org/2000/svg" width="16" height="16" viewBox="0 0 16 16"><defs><style>.a{fill:#fec9c9;opacity:0;}.b{fill:#444552;}.c{fill:#0477fd;}</style></defs><g transform="translate(-25 -295)"><rect class="a" width="16" height="16" transform="translate(25 295)"/><g transform="translate(-766.572 196.357)"><path class="b" d="M804.613,105.75h-1.207v-3.459a3.075,3.075,0,0,0-3.071-3.071h-4.917a3.075,3.075,0,0,0-3.072,3.071V111a3.075,3.075,0,0,0,3.072,3.071h9.2a2.187,2.187,0,0,0,2.184-2.183v-3.95A2.186,2.186,0,0,0,804.613,105.75Zm-2.825,6.7h-6.37A1.455,1.455,0,0,1,793.965,111v-8.7a1.455,1.455,0,0,1,1.453-1.453h4.917a1.455,1.455,0,0,1,1.453,1.453v10.157Zm3.391-.564a.566.566,0,0,1-.566.564h-1.207v-5.079h1.207a.565.565,0,0,1,.566.564Z" transform="translate(0 0)"/><path class="c" d="M799.265,105.073h-3.233a.809.809,0,0,1,0-1.619h3.233a.809.809,0,0,1,0,1.619Z" transform="translate(0.228 0.335)"/><path class="c" d="M799.265,108.256h-3.233a.809.809,0,0,1,0-1.619h3.233a.809.809,0,0,1,0,1.619Z" transform="translate(0.228 0.588)"/></g></g></svg>