<svg xmlns="http://www.w3.org/2000/svg" width="16" height="16" viewBox="0 0 16 16"><defs><style>.a{fill:#f6c6c6;opacity:0;}.b{fill:#0477fd;}.c{fill:#444552;}</style></defs><g transform="translate(-33 -214)"><rect class="a" width="16" height="16" transform="translate(33 214)"/><g transform="translate(-488.146 -148.773)"><path class="b" d="M528.411,372.656a.827.827,0,0,1-.577-.235l-1.988-2a.809.809,0,0,1-.238-.59.823.823,0,0,1,.247-.582.832.832,0,0,1,.581-.235.819.819,0,0,1,.571.229l1.4,1.411,2.536-2.547a.829.829,0,0,1,1.171-.005.833.833,0,0,1,.01,1.162L529,372.412A.826.826,0,0,1,528.411,372.656Z" transform="translate(0.17 0.242)"/><path class="b" d="M532.031,368.178a.714.714,0,0,0-1.009,0l-2.616,2.629-1.482-1.491a.714.714,0,0,0-1,1.018l1.988,2a.705.705,0,0,0,.5.2.713.713,0,0,0,.508-.211l3.127-3.147A.714.714,0,0,0,532.031,368.178Z" transform="translate(0.175 0.247)"/><path class="c" d="M535.5,364.719l-6.374-1.783-6.313,1.784a.915.915,0,0,0-.663.878l0,5.45a7.753,7.753,0,0,0,1.914,4.845,9.707,9.707,0,0,0,4.874,2.669l.2.049.2-.041a8.976,8.976,0,0,0,4.91-2.677,7.185,7.185,0,0,0,1.917-4.845V365.6A.917.917,0,0,0,535.5,364.719Zm-11.591,1.519,5.247-1.483,5.247,1.483v4.74a5.452,5.452,0,0,1-1.485,3.762,7.252,7.252,0,0,1-3.705,2.074,7.918,7.918,0,0,1-3.873-2.135,5.971,5.971,0,0,1-1.431-3.711Z" transform="translate(0 0)"/></g></g></svg>