<svg xmlns="http://www.w3.org/2000/svg" xmlns:xlink="http://www.w3.org/1999/xlink" width="32" height="32" viewBox="0 0 32 32"><defs><style>.a{fill:none;}.b{fill:url(#a);}.c{fill:#f5f7fe;}.d{clip-path:url(#b);}</style><linearGradient id="a" y1="0.5" x2="1" y2="0.5" gradientUnits="objectBoundingBox"><stop offset="0" stop-color="#58a2fc"/><stop offset="1" stop-color="#326efb"/></linearGradient><clipPath id="b"><circle class="a" cx="15.823" cy="15.823" r="15.823" transform="translate(693.513 149.324)"/></clipPath></defs><g transform="translate(-693.383 -149.24)"><circle class="b" cx="16" cy="16" r="16" transform="translate(693.383 149.24)"/><path class="c" d="M701.531,158.879l-3.425,0a1.23,1.23,0,0,0-1.09,1.117v3.4a.651.651,0,1,0,1.3,0v-3.216h3.217a.65.65,0,1,0,0-1.3Z"/><path class="c" d="M716.622,158.879l3.426,0a1.231,1.231,0,0,1,1.09,1.117v3.4a.651.651,0,0,1-1.3,0v-3.216H716.62a.65.65,0,1,1,0-1.3Z"/><g transform="translate(0.046 0.269)"><g class="d"><rect class="c" width="17.639" height="20.641" rx="1.41" transform="translate(700.517 161.941)"/></g></g><path class="b" d="M705.609,167.643a3.6,3.6,0,0,0,7.2,0h0a3.6,3.6,0,0,0-7.2,0Z"/><path class="b" d="M712.251,172.124h-6.089a2.775,2.775,0,0,0-2.767,2.767v1.091a.815.815,0,0,0,.83.83h9.963a.815.815,0,0,0,.83-.83v-1.091a2.775,2.775,0,0,0-2.767-2.767Z"/></g></svg>