<svg xmlns="http://www.w3.org/2000/svg" width="16" height="16" viewBox="0 0 16 16"><defs><style>.a{fill:#f6c6c6;opacity:0;}.b{fill:#444552;}.c{fill:#0477fd;}</style></defs><g transform="translate(-33 -294)"><rect class="a" width="16" height="16" transform="translate(33 294)"/><g transform="translate(-532.81 -68.732)"><path class="b" d="M573.809,363.011a7.721,7.721,0,1,0,7.72,7.722A7.73,7.73,0,0,0,573.809,363.011Zm0,13.688a5.967,5.967,0,1,1,5.967-5.967A5.974,5.974,0,0,1,573.809,376.7Z" transform="translate(0 0)"/><path class="c" d="M576.857,367.063a.433.433,0,0,0-.356-.186.415.415,0,0,0-.238.072l-2.164,1.317a2,2,0,0,0-.994,0,1.994,1.994,0,0,0-1.228.921,1.766,1.766,0,0,0-.2,1.428l-1.451,2.409a.432.432,0,0,0,.355.678.428.428,0,0,0,.242-.075l2.288-1.476a1.993,1.993,0,0,0,.992,0,2,2,0,0,0,1.228-.92,1.774,1.774,0,0,0,.206-1.43l1.323-2.248A.434.434,0,0,0,576.857,367.063Zm-3.254,3.659a.512.512,0,0,1-.512-.513.512.512,0,0,1,.512-.512h0a.512.512,0,0,1,0,1.025Z" transform="translate(0.332 0.317)"/></g></g></svg>