<svg xmlns="http://www.w3.org/2000/svg" xmlns:xlink="http://www.w3.org/1999/xlink" width="32" height="32" viewBox="0 0 32 32"><defs><style>.a{fill:url(#a);}.b{fill:#f5f7fe;}</style><linearGradient id="a" y1="0.5" x2="1" y2="0.5" gradientUnits="objectBoundingBox"><stop offset="0" stop-color="#58a2fc"/><stop offset="1" stop-color="#326efb"/></linearGradient></defs><g transform="translate(-928.353 -386.559)"><circle class="a" cx="16" cy="16" r="16" transform="translate(928.353 386.559)"/><path class="b" d="M952.784,406.98H935.878c-.662,0-1.206.826-1.206,1.853v6.336a15.995,15.995,0,0,0,19.318,0v-6.336C953.99,407.806,953.446,406.98,952.784,406.98Zm-12.517,6.577a1.467,1.467,0,0,1-.951.4,1.377,1.377,0,1,1,1.377-1.377A1.648,1.648,0,0,1,940.267,413.557Zm5.132,0a1.467,1.467,0,0,1-.951.4,1.374,1.374,0,0,1-1.378-1.377,1.39,1.39,0,0,1,1.378-1.377,1.374,1.374,0,0,1,1.377,1.377A1.647,1.647,0,0,1,945.4,413.557Zm5.207,0a1.467,1.467,0,0,1-.951.4,1.374,1.374,0,0,1-1.378-1.377,1.39,1.39,0,0,1,1.378-1.377,1.374,1.374,0,0,1,1.377,1.377A1.391,1.391,0,0,1,950.606,413.557Z" transform="translate(0.022 0.145)"/><g transform="translate(0.085)"><path class="b" d="M944.7,398.792c-2.394,0-4.341,1.619-4.341,3.609a.736.736,0,0,0,.46.643,1.006,1.006,0,0,0,.45.106,1.066,1.066,0,0,0,.465-.108.708.708,0,0,0,.457-.641,2.574,2.574,0,0,1,5.081,0,.69.69,0,0,0,.258.514,1.055,1.055,0,0,0,1.35-.07.582.582,0,0,0,.177-.428C949.057,400.418,947.1,398.792,944.7,398.792Z"/><path class="b" d="M948.5,396.168a8.82,8.82,0,0,0-7.5,0,6.145,6.145,0,0,0-3.739,5.4.921.921,0,0,0,1.8,0,4.7,4.7,0,0,1,2.839-4.138,6.659,6.659,0,0,1,5.663,0,4.7,4.7,0,0,1,2.838,4.138.736.736,0,0,0,.259.514,1,1,0,0,0,.642.211.834.834,0,0,0,.9-.742A6.13,6.13,0,0,0,948.5,396.168Z"/><path class="b" d="M944.718,402.679a1.033,1.033,0,0,0-1.03,1,1.028,1.028,0,1,0,1.03-1Z"/></g></g></svg>