<svg xmlns="http://www.w3.org/2000/svg" width="93.867" height="60.939" viewBox="0 0 93.867 60.939"><defs><style>.a{fill:#e6eaf3;}.b{fill:#f4f9ff;}.c{fill:#e5ebfb;}.d{fill:#0158ff;}.e,.g{fill:#8bb0f6;}.e{opacity:0.7;}.f{fill:#b7d0f9;}</style></defs><g transform="translate(0)"><rect class="a" width="90.115" height="57.175" transform="translate(1.879 1.886)"/><rect class="b" width="78.776" height="45.726" rx="6" transform="translate(7.493 7.576)"/><rect class="c" width="26.614" height="2.745" rx="1.373" transform="translate(50.099 30.13)"/><rect class="c" width="20.496" height="2.745" rx="1.373" transform="translate(50.099 36.73)"/><path class="d" d="M1163.829,446.435h-1.876v-2.748h-2.67v-1.876h4.546Z" transform="translate(-1069.962 -441.811)"/><path class="d" d="M827.83,446.5h-1.876v-4.624H830.5v1.876h-2.67Z" transform="translate(-825.953 -441.856)"/><path class="d" d="M1163.829,656.594h-4.546v-1.876h2.67V651.97h1.876Z" transform="translate(-1069.962 -595.654)"/><path class="d" d="M830.5,656.533h-4.546v-4.624h1.876v2.748h2.67Z" transform="translate(-825.953 -595.609)"/><rect class="c" width="5.612" height="5.612" rx="1.659" transform="translate(50.099 20.663)"/><rect class="c" width="5.612" height="5.612" rx="1.659" transform="translate(57.923 20.663)"/><rect class="c" width="5.612" height="5.612" rx="1.659" transform="translate(65.82 20.663)"/><path class="e" d="M901.2,513.754a11,11,0,0,0-7.662,18.885v2.9a5.08,5.08,0,0,0,3.694,1.591c.139,0,.274-.01.41-.021v-1.948a11,11,0,0,0,7.739-.234v2.182c.136.011.272.021.41.021a5.081,5.081,0,0,0,3.694-1.591V531.98a11,11,0,0,0-8.287-18.226Z" transform="translate(-872.985 -494.476)"/><ellipse class="f" cx="7.713" cy="7.713" rx="7.713" ry="7.713" transform="translate(20.503 22.564)"/><path class="g" d="M918.582,561.28h-3.616l-.836-1.765h-6.137l-.854,1.765h-3.182a8.513,8.513,0,0,0,.76,1.072h13.106A8.54,8.54,0,0,0,918.582,561.28Z" transform="translate(-883.054 -527.974)"/></g></svg>