<svg xmlns="http://www.w3.org/2000/svg" width="93.867" height="60.94" viewBox="0 0 93.867 60.94"><defs><style>.a{fill:#e6eaf3;}.b{fill:#f4f9ff;}.c{fill:#e5ebfb;}.d{fill:#0158ff;}.e{fill:#8baff5;opacity:0.7;}</style></defs><g transform="translate(0)"><rect class="a" width="90.115" height="57.175" transform="translate(1.879 1.886)"/><rect class="b" width="78.776" height="45.726" rx="7" transform="translate(7.492 7.576)"/><rect class="c" width="5.921" height="2.745" rx="1.373" transform="translate(19.375 21.117)"/><rect class="c" width="12.588" height="2.745" rx="1.373" transform="translate(27.57 21.117)"/><rect class="c" width="5.921" height="2.745" rx="1.373" transform="translate(19.375 29.025)"/><rect class="c" width="17.96" height="2.745" rx="1.373" transform="translate(27.57 29.025)"/><rect class="c" width="5.921" height="2.745" rx="1.373" transform="translate(19.375 36.791)"/><rect class="c" width="17.96" height="2.745" rx="1.373" transform="translate(27.57 36.791)"/><path class="d" d="M739.112,446.423h-1.876v-2.748h-2.67V441.8h4.546Z" transform="translate(-645.245 -441.799)"/><path class="d" d="M403.113,446.484h-1.876V441.86h4.546v1.876h-2.67Z" transform="translate(-401.237 -441.843)"/><path class="d" d="M739.112,656.581h-4.546v-1.876h2.67v-2.748h1.876Z" transform="translate(-645.245 -595.642)"/><path class="d" d="M405.783,656.52h-4.546V651.9h1.876v2.748h2.67Z" transform="translate(-401.237 -595.597)"/><path class="e" d="M627.24,530.566a4.338,4.338,0,0,0-.558-2.121,4.2,4.2,0,0,0-1.563-1.563,9.464,9.464,0,0,0-3.015-1.116,7.78,7.78,0,0,1-1.563-.335,3.949,3.949,0,0,1-1.228-.447v-.67a4.329,4.329,0,0,1,1.563-2.9,5.107,5.107,0,0,0,1.563-3.238,1.006,1.006,0,0,0-.112-.558,2.439,2.439,0,0,0-.335-.558c0-.335.112-.67.112-.893a8.8,8.8,0,0,0-.112-2.345,1.213,1.213,0,0,0-.112-.558,4.024,4.024,0,0,0-.893-1.675,11.993,11.993,0,0,0-6.029-1.9h-1.675a1.418,1.418,0,0,0-.67.111,1.433,1.433,0,0,0-1,1v.67l-.112.112a4.2,4.2,0,0,0-1.34,2.456,15.7,15.7,0,0,0,0,3.238,1.739,1.739,0,0,0-.335,1,4.321,4.321,0,0,0,.893,2.345c.223.223.335.447.67.782a4.921,4.921,0,0,1,1.563,2.9v.67a5.777,5.777,0,0,1-1.34.558,10.048,10.048,0,0,1-1.675.335,9.846,9.846,0,0,0-2.9,1,5.2,5.2,0,0,0-1.563,1.563,4.337,4.337,0,0,0-.558,2.121v.558a.984.984,0,0,0,1,.893h20.321a1,1,0,0,0,1-1Z" transform="translate(-550.332 -491.495)"/></g></svg>