<svg xmlns="http://www.w3.org/2000/svg" xmlns:xlink="http://www.w3.org/1999/xlink" width="300" height="300" viewBox="0 0 300 300"><defs><style>.a{fill:#fff;stroke:#707070;}.b{fill:#ff9191;opacity:0;}.c{clip-path:url(#a);}.d,.i{opacity:0.65;}.d{fill:url(#b);}.e{opacity:0.52;}.f{fill:#c3d1dd;opacity:0.6;}.f,.g,.k{fill-rule:evenodd;}.g,.k{opacity:0.2;}.g{fill:url(#c);}.h{opacity:0.56;}.j{opacity:0.63;}.k{fill:url(#f);}.l{fill:url(#g);}.m,.p,.t{opacity:0.45;}.m{fill:url(#h);}.n,.s{opacity:0.8;}.o,.s{fill:#5291ff;}.p{fill:url(#i);}.q{fill:url(#j);}.r{fill:url(#k);}.t{fill:url(#l);}</style><clipPath id="a"><rect class="a" width="293" height="120" transform="translate(0.322 0.01)"/></clipPath><linearGradient id="b" x1="0.5" y1="0.033" x2="0.5" y2="0.504" gradientUnits="objectBoundingBox"><stop offset="0.004" stop-color="#bbd7ff"/><stop offset="0.065" stop-color="#bbd7ff" stop-opacity="0.859"/><stop offset="0.162" stop-color="#bbd7ff" stop-opacity="0.659"/><stop offset="0.263" stop-color="#bbd7ff" stop-opacity="0.482"/><stop offset="0.368" stop-color="#bbd7ff" stop-opacity="0.333"/><stop offset="0.475" stop-color="#bbd7ff" stop-opacity="0.212"/><stop offset="0.587" stop-color="#bbd7ff" stop-opacity="0.118"/><stop offset="0.705" stop-color="#bbd7ff" stop-opacity="0.051"/><stop offset="0.834" stop-color="#bbd7ff" stop-opacity="0.012"/><stop offset="0.993" stop-color="#bbd7ff" stop-opacity="0"/></linearGradient><linearGradient id="c" x1="0.5" y1="0.026" x2="0.5" y2="0.808" gradientUnits="objectBoundingBox"><stop offset="0" stop-color="#c8d6e5" stop-opacity="0"/><stop offset="1" stop-color="#8fa7bc"/></linearGradient><linearGradient id="f" x1="0.5" y1="0.026" x2="0.5" y2="0.808" xlink:href="#c"/><linearGradient id="g" x1="1.171" y1="0.973" x2="0.199" y2="0.288" gradientUnits="objectBoundingBox"><stop offset="0.007" stop-color="#fff"/><stop offset="1" stop-color="#8eb1fe"/></linearGradient><linearGradient id="h" x1="0.82" y1="-0.183" x2="0.494" y2="0.468" gradientUnits="objectBoundingBox"><stop offset="0" stop-color="#a3b8ce"/><stop offset="1" stop-color="#d6e0ed" stop-opacity="0"/></linearGradient><linearGradient id="i" y1="0.196" y2="0.902" xlink:href="#b"/><linearGradient id="j" x1="0.5" y1="-0.43" x2="0.5" y2="0.57" gradientUnits="objectBoundingBox"><stop offset="0" stop-color="#dde8ff"/><stop offset="1" stop-color="#8eb1fe"/></linearGradient><linearGradient id="k" x1="0.5" y1="1.009" x2="0.5" y2="0.348" gradientUnits="objectBoundingBox"><stop offset="0" stop-color="#b3d3fc"/><stop offset="1" stop-color="#d9e7ff"/></linearGradient><linearGradient id="l" y1="0.098" y2="1.002" xlink:href="#b"/></defs><g transform="translate(0.147)"><rect class="b" width="300" height="300" transform="translate(-0.147)"/><g transform="translate(3.531 6.245)"><g class="c" transform="translate(0 106.745)"><ellipse class="d" cx="146.199" cy="90.403" rx="146.199" ry="90.403" transform="translate(0.528 15.355)"/></g><g transform="translate(15.729)"><g transform="translate(68.621 132.477)"><g class="e" transform="translate(140.446 18.273)"><path class="f" d="M455.437,412.809a.136.136,0,0,0,0,.258l2.8,1.619a.5.5,0,0,0,.447,0l2.819-1.619a.136.136,0,0,0,0-.258l-2.8-1.618a.5.5,0,0,0-.448,0Z" transform="translate(-455.344 -404.283)"/><path class="g" d="M455.345,408.849v-8.638h6.248v8.632a.146.146,0,0,1-.091.151l-2.819,1.619a.5.5,0,0,1-.447,0l-2.8-1.619A.147.147,0,0,1,455.345,408.849Z" transform="translate(-455.344 -400.211)"/></g><g class="h" transform="translate(30.151 18.273)"><path class="f" d="M279.636,416.8a.179.179,0,0,0,0,.339l3.688,2.132a.658.658,0,0,0,.589,0l3.712-2.132a.179.179,0,0,0,0-.339l-3.688-2.131a.654.654,0,0,0-.59,0Z" transform="translate(-279.513 -405.573)"/><path class="g" d="M279.516,411.584V400.211h8.227v11.366a.194.194,0,0,1-.12.2l-3.712,2.132a.658.658,0,0,1-.589,0l-3.688-2.132A.193.193,0,0,1,279.516,411.584Z" transform="translate(-279.513 -400.211)"/></g><g class="i" transform="translate(0 0.958)"><path class="f" d="M231.555,387.032a.156.156,0,0,0,0,.3l3.207,1.853a.571.571,0,0,0,.513,0l3.227-1.853a.156.156,0,0,0,0-.3l-3.207-1.853a.567.567,0,0,0-.512,0Z" transform="translate(-231.448 -377.271)"/><path class="g" d="M231.45,382.5v-9.89H238.6v9.883a.168.168,0,0,1-.1.173l-3.227,1.853a.571.571,0,0,1-.512,0l-3.207-1.853A.168.168,0,0,1,231.45,382.5Z" transform="translate(-231.448 -372.608)"/></g><g class="j" transform="translate(102.965)"><path class="f" d="M395.717,387.814a.181.181,0,0,0,0,.342l3.72,2.15a.665.665,0,0,0,.595,0l3.744-2.15a.181.181,0,0,0,0-.342l-3.72-2.15a.665.665,0,0,0-.595,0Z" transform="translate(-395.593 -376.489)"/><path class="k" d="M395.595,382.554V371.08h8.3v11.466a.2.2,0,0,1-.121.2l-3.744,2.15a.665.665,0,0,1-.595,0l-3.72-2.15A.2.2,0,0,1,395.595,382.554Z" transform="translate(-395.593 -371.08)"/></g></g><rect class="l" width="69.294" height="96.233" rx="10.453" transform="translate(154.598 0.055) rotate(30)"/><path class="m" d="M214.436,418.159l49.12-42.8-21.007-2.177-7.99-4.942s-34.824,4.306-56.985,16.589c-10.9,6.039-23.174,12.157-23.174,12.157l-31.293,27.227,23.517,13.317,41.53-6.838Z" transform="translate(-122.446 -237.546)"/><g class="n" transform="translate(158.675 15.404)"><g transform="translate(6.202 3.544)"><path class="o" d="M415.341,210.591l-29.308-16.3a2.245,2.245,0,1,1,2.245-3.889l29.309,16.3a2.246,2.246,0,1,1-2.246,3.889Z" transform="translate(-384.898 -190.094)"/></g><ellipse class="o" cx="2.3" cy="2.3" rx="2.3" ry="2.3"/></g><g class="n" transform="translate(152.084 26.866)"><g transform="translate(6.202 3.544)"><path class="o" d="M404.834,228.863l-29.308-16.3a2.246,2.246,0,1,1,2.245-3.89l29.308,16.3a2.246,2.246,0,1,1-2.246,3.889Z" transform="translate(-374.391 -208.366)"/></g><ellipse class="o" cx="2.3" cy="2.3" rx="2.3" ry="2.3"/></g><path class="p" d="M509.8,301.934a12.024,12.024,0,0,0-8.431,3.357c-1.6-5.163-6.765-8.945-12.9-8.945-7.407,0-13.411,5.518-13.411,12.326s6,12.326,13.411,12.326a13.843,13.843,0,0,0,10.511-4.674A11.573,11.573,0,0,0,509.8,323.19c6.386,0,11.563-4.758,11.563-10.628S516.185,301.934,509.8,301.934Z" transform="translate(-253.626 -210.748)"/><path class="q" d="M328.8,200.908a236.177,236.177,0,0,0-54.466.051,35.7,35.7,0,0,1-24.667,22.225v36.074c0,15.744,5.256,38.707,50.708,56.275l1.416.548h0l1.415-.548C348.654,297.966,353.91,275,353.91,259.258v-35.97A35.7,35.7,0,0,1,328.8,200.908Z" transform="translate(-169.616 -174.599)"/><path class="r" d="M329.445,215.924a197.433,197.433,0,0,0-45.526.043A29.843,29.843,0,0,1,263.3,234.544V264.7c0,13.16,4.393,32.354,42.385,47.039l1.184.458h0l1.182-.458c37.992-14.685,42.385-33.879,42.385-47.039V234.631A29.84,29.84,0,0,1,329.445,215.924Z" transform="translate(-174.699 -180.291)"/><path class="s" d="M342.15,276.832a3.129,3.129,0,0,0-2.293-.961H309.442a3.047,3.047,0,0,0-2.268.961,3.17,3.17,0,0,0-.936,2.292v15.627a6.372,6.372,0,0,0,.419,2.317,5.729,5.729,0,0,0,5.447,3.7H337a5.875,5.875,0,0,0,4.362-1.848,6.423,6.423,0,0,0,1.282-2.022,6.574,6.574,0,0,0,.469-2.489V279.124A3.131,3.131,0,0,0,342.15,276.832Zm-15.336,12.936v3.956a1.468,1.468,0,1,1-2.937,0v-3.956a4.487,4.487,0,1,1,2.937,0Z" transform="translate(-190.703 -203.117)"/><path class="s" d="M322.272,254.247a6.674,6.674,0,0,1,1.627-4.806,5.661,5.661,0,0,1,4.289-1.7,6.379,6.379,0,0,1,4.683,1.7,6.446,6.446,0,0,1,1.725,4.806v5.866h5.965v-7.247a9.827,9.827,0,0,0-1.011-4.412,12.075,12.075,0,0,0-2.711-3.6,12.9,12.9,0,0,0-3.894-2.44,12.052,12.052,0,0,0-4.56-.887,13.218,13.218,0,0,0-4.905.887,12.141,12.141,0,0,0-3.894,2.44,11.431,11.431,0,0,0-2.588,3.6,10.473,10.473,0,0,0-.937,4.412v7.247h6.211v-5.866Z" transform="translate(-194.364 -190.317)"/><path class="t" d="M168.792,208.764a9.409,9.409,0,0,0-11.392-9.2,14.216,14.216,0,0,0-26.522.807,8.9,8.9,0,0,0-.041,17.8v.006h28.37c.057,0,.112.009.169.009s.113-.008.17-.009h.046v0A9.411,9.411,0,0,0,168.792,208.764Z" transform="translate(-122.054 -171.428)"/><path class="t" d="M491.914,155.285a9.409,9.409,0,0,0-11.392-9.2,14.216,14.216,0,0,0-26.522.807,8.9,8.9,0,0,0-.041,17.8v.006h28.37c.057,0,.112.009.169.009s.113-.008.17-.009h.046v0A9.41,9.41,0,0,0,491.914,155.285Z" transform="translate(-242.487 -137.372)"/></g></g></g></svg>