<svg xmlns="http://www.w3.org/2000/svg" width="16" height="16" viewBox="0 0 16 16"><defs><style>.a{fill:#fec9c9;opacity:0;}.b{fill:#0477fd;}.c{fill:#444552;}</style></defs><g transform="translate(-25 -295)"><rect class="a" width="16" height="16" transform="translate(25 295)"/><g transform="translate(-788.595 195.287)"><path class="b" d="M824.172,109.784h-3.438a.865.865,0,1,1,0-1.731h3.438a.865.865,0,1,1,0,1.731Z" transform="translate(0.608 0.764)"/><path class="c" d="M825.186,114.939H818a4.162,4.162,0,0,1-4.157-4.157l.063-6.144a4.061,4.061,0,0,1,4.166-4.148h1.333a3.417,3.417,0,0,1,2.3,1.047l.61.593a.27.27,0,0,0,.215.1h0l2.694-.017h.026a4.088,4.088,0,0,1,4.088,4.089v4.476A4.162,4.162,0,0,1,825.186,114.939Zm-7.141-12.72a2.361,2.361,0,0,0-2.4,2.441l-.064,6.131A2.428,2.428,0,0,0,818,113.209h7.181a2.43,2.43,0,0,0,2.428-2.428v-4.476a2.345,2.345,0,0,0-.7-1.675,2.377,2.377,0,0,0-1.678-.685l-2.693.017a1.977,1.977,0,0,1-1.536-.7l-.483-.462a1.736,1.736,0,0,0-1.119-.581h-1.364Z"/></g></g></svg>