<svg xmlns="http://www.w3.org/2000/svg" width="18" height="18" viewBox="0 0 18 18">
    <defs>
        <style>.a{fill:#ffa0a0;opacity:0;}.b{fill:#cacddf;}</style>
    </defs>
    <g transform="translate(-1302 -468)">
        <rect class="a" width="18" height="18" transform="translate(1302 468)" />
        <path class="b"
            d="M118.17,53.833a1.262,1.262,0,0,0-1-1.152,23.6,23.6,0,0,1-3.229-.74,12.007,12.007,0,0,1-2.883-1.649,1.326,1.326,0,0,0-1.548.046,7.577,7.577,0,0,1-2.909,1.622,10.851,10.851,0,0,1-3.148.775,1.173,1.173,0,0,0-.992,1.1s-.071,2.8.019,5.257c.034,4.4,5.238,8.742,7.868,8.742,2.589,0,7.062-3.028,7.766-8.678C118.286,55.8,118.17,53.833,118.17,53.833Zm-4.038,3.857-4.475,4.529a.557.557,0,0,1-.733.041L106.587,60.4a.885.885,0,0,1-.094-1.332,1.108,1.108,0,0,1,1.463-.1l1.085.849,3.728-3.512a1.015,1.015,0,0,1,1.385.006c-.005-.006-.007-.013-.013-.019l.032.032c-.006-.006-.013-.007-.019-.013A.991.991,0,0,1,114.132,57.689Z"
            transform="translate(1200.68 418.051)" />
    </g>
</svg>