<svg xmlns="http://www.w3.org/2000/svg" width="18" height="18" viewBox="0 0 18 18"><defs><style>.a{fill:#ffa0a0;opacity:0;}.b{fill:#cacddf;}</style></defs><g transform="translate(-1302 -468)"><rect class="a" width="18" height="18" transform="translate(1302 468)"/><path class="b" d="M133.445,7.1H130.9V4.333a3.779,3.779,0,0,1,.383-1.686,4.388,4.388,0,0,1,1.059-1.375,5.026,5.026,0,0,1,1.593-.933A5.746,5.746,0,0,1,135.946,0a5.234,5.234,0,0,1,1.865.339,5.342,5.342,0,0,1,1.593.933,4.659,4.659,0,0,1,1.109,1.375,3.553,3.553,0,0,1,.413,1.686V7.1h-2.44V4.86a2.372,2.372,0,0,0-.706-1.837,2.718,2.718,0,0,0-1.916-.65,2.4,2.4,0,0,0-1.754.65,2.45,2.45,0,0,0-.665,1.837V7.1Zm8.692,1.13a1.326,1.326,0,0,1,.938.367,1.158,1.158,0,0,1,.393.876v5.84a2.37,2.37,0,0,1-.192.951,2.408,2.408,0,0,1-1.311,1.29,2.578,2.578,0,0,1-1,.188H130.783a2.5,2.5,0,0,1-.988-.188,2.375,2.375,0,0,1-.756-.5,2.2,2.2,0,0,1-.484-.725,2.294,2.294,0,0,1-.171-.885V9.476a1.172,1.172,0,0,1,.383-.876,1.291,1.291,0,0,1,.928-.367h12.443Z" transform="translate(1175.074 468.127)"/></g></svg>