<svg xmlns="http://www.w3.org/2000/svg" width="18" height="18" viewBox="0 0 18 18"><defs><style>.a{fill:#ffa0a0;opacity:0;}.b{fill:#cacddf;}</style></defs><g transform="translate(-1302 -468)"><rect class="a" width="18" height="18" transform="translate(1302 468)"/><path class="b" d="M225.771,80.533V73.356a3.459,3.459,0,0,0-3.456-3.456h-6.76a3.459,3.459,0,0,0-3.456,3.456v7.177ZM212.1,82.093v2.1a3.459,3.459,0,0,0,3.456,3.456h6.76a3.459,3.459,0,0,0,3.456-3.456v-2.1Zm6.836,4.031a1.412,1.412,0,1,1,1.412-1.412A1.413,1.413,0,0,1,218.936,86.125Z" transform="translate(1092.324 398.213)"/></g></svg>