<svg xmlns="http://www.w3.org/2000/svg" xmlns:xlink="http://www.w3.org/1999/xlink" width="46" height="46" viewBox="0 0 46 46"><defs><style>.a{fill:#fbcbcb;opacity:0;}.b{fill:url(#a);}.c{fill:url(#b);}.d{fill:url(#c);}.e{fill:url(#d);}.f{fill:url(#e);}.g{fill:url(#f);}.h{fill:url(#g);}.i{fill:url(#h);}.j{fill:url(#i);}.k{fill:url(#j);}.l{fill:url(#k);}.m{fill:url(#l);}.n{fill:url(#m);}.o{fill:url(#n);}.p{fill:url(#o);}</style><linearGradient id="a" x1="0.482" y1="-0.036" x2="0.63" y2="4.708" gradientUnits="objectBoundingBox"><stop offset="0" stop-color="#047bfd"/><stop offset="1" stop-color="#04d2fd"/></linearGradient><linearGradient id="b" x1="0.429" y1="-0.352" x2="0.521" y2="0.951" xlink:href="#a"/><linearGradient id="c" x1="0.474" y1="-0.024" x2="0.565" y2="1.282" xlink:href="#a"/><linearGradient id="d" x1="0.358" y1="-3.99" x2="0.511" y2="0.794" xlink:href="#a"/><linearGradient id="e" x1="0.378" y1="-14.12" x2="0.54" y2="4.656" xlink:href="#a"/><linearGradient id="f" x1="0.19" y1="-16.017" x2="0.553" y2="2.759" xlink:href="#a"/><linearGradient id="g" x1="0.417" y1="-12.206" x2="0.54" y2="6.57" xlink:href="#a"/><linearGradient id="h" x1="0.461" y1="-0.199" x2="0.561" y2="2.197" xlink:href="#a"/><linearGradient id="i" x1="0.428" y1="-10.273" x2="0.553" y2="8.502" xlink:href="#a"/><linearGradient id="j" x1="0.482" y1="0.005" x2="0.55" y2="1.945" xlink:href="#a"/><linearGradient id="k" x1="0.403" y1="-14.316" x2="0.526" y2="4.46" xlink:href="#a"/><linearGradient id="l" x1="0.391" y1="-16.175" x2="0.514" y2="2.6" xlink:href="#a"/><linearGradient id="m" x1="0.375" y1="-15.625" x2="0.502" y2="0.639" xlink:href="#a"/><linearGradient id="n" x1="0.415" y1="-12.456" x2="0.538" y2="6.32" xlink:href="#a"/><linearGradient id="o" x1="0.425" y1="-10.594" x2="0.552" y2="8.181" xlink:href="#a"/></defs><g transform="translate(-112 -74)"><rect class="a" width="46" height="46" transform="translate(112 74)"/><g transform="translate(112.64 79.321)"><path class="b" d="M968.489,701.981c-.276-.523-.538-.973-.744-1.331a2.018,2.018,0,0,0-1.9-1.077c-1.062,0-1.746,0-1.795,0a.574.574,0,0,0-.574.574.7.7,0,0,0,.154.415s.1.182.157.278c.2.348,1.617,2.837,3.333,5.824h4.12C970.29,705.035,969.432,703.618,968.489,701.981Z" transform="translate(-940.515 -699.544)"/><path class="c" d="M974.994,793.058a7.507,7.507,0,0,1-.445-.76c-.561-.969-1.432-2.565-1.994-3.533h-4.082c1.168,2.03,2.6,4.6,3.3,5.807.1.145.19.291.272.438a5.357,5.357,0,0,1,.587,2.3,5.247,5.247,0,0,1-.523,2.122q-.088.167-.191.332c-.413.657-5.8,10.042-7.668,13.332l-.013.023,0,0,0,.007a2.284,2.284,0,0,0-.355.812.457.457,0,0,0,.046.262l.009.021a.627.627,0,0,0,.107.162c.132.15.371.213,1.044.216.758,0,.865-.015.965-.014a2.093,2.093,0,0,0,1.739-.7,3.3,3.3,0,0,0,.405-.572q.678-1.174,1.32-2.318,2.713-4.733,5.454-9.505l.073-.12c.021-.034.041-.071.06-.108C976.942,798.407,976.9,795.993,974.994,793.058Z" transform="translate(-940.876 -779.952)"/><path class="d" d="M1067.058,712.434a7.561,7.561,0,0,1-.445-.76q-2.861-4.941-5.72-9.884c-.276-.523-.538-.972-.745-1.331a2.019,2.019,0,0,0-1.9-1.077c-1.062,0-1.746,0-1.795,0a.574.574,0,0,0-.574.574.7.7,0,0,0,.154.415s.1.182.157.278c.383.663,5.662,9.88,7.651,13.293.1.145.19.291.272.438a5.356,5.356,0,0,1,.587,2.3,5.249,5.249,0,0,1-.523,2.122q-.088.167-.192.332c-.2.322-1.883,3.239-3.474,6.008h4.005c.722-1.258,1.788-3.017,2.513-4.281l.073-.12c.021-.034.041-.071.06-.108C1069.006,717.783,1068.961,715.37,1067.058,712.434Z" transform="translate(-1023.819 -699.372)"/><path class="e" d="M1056.844,984.8l-.013.024,0,0,0,.007a2.284,2.284,0,0,0-.355.812.459.459,0,0,0,.046.262c0,.007.005.014.009.021a.617.617,0,0,0,.107.162c.132.15.371.224,1.044.216.867-.01.721,0,.984-.006a2.137,2.137,0,0,0,1.719-.711,3.311,3.311,0,0,0,.405-.572q.677-1.174,1.32-2.318c.7-1.216,1.21-2.21,1.91-3.429h-4C1058.713,981.525,1057.574,983.512,1056.844,984.8Z" transform="translate(-1024.351 -951.694)"/><g transform="translate(0 3.304)"><path class="f" d="M770.533,961.035q.527.894,1.055,1.793h5.043c.379-.658.743-1.291,1.034-1.793Z" transform="translate(-766.575 -938.562)"/><path class="g" d="M790.807,995.614q.373.642.747,1.291c.109.183.217.36.314.5h1.084c.008-.013.017-.026.024-.04.053-.1.306-.532.329-.572l.678-1.181Z" transform="translate(-784.852 -969.735)"/><path class="h" d="M751.186,928.249h8.364a2.948,2.948,0,0,0-.212-.423q-.405-.683-.8-1.37h-8.407Z" transform="translate(-748.179 -907.388)"/><path class="i" d="M738.2,746.87a3.017,3.017,0,0,1,.46-1.612c.953-1.637,1.938-3.359,2.864-4.978a1.433,1.433,0,0,0,.077-1.574c-1.247-2.19-2-3.479-3.035-5.279-.34-.728-.774-.7-1.076-.449a2.16,2.16,0,0,0-.337.513c-1.907,3.274-3.821,6.534-5.716,9.815a7.151,7.151,0,0,0-1.1,3.565Z" transform="translate(-730.334 -732.819)"/><path class="j" d="M732.386,891.876a4.266,4.266,0,0,0,.446,1.188l.354.6h8.427q-.511-.9-1.02-1.793Z" transform="translate(-732.184 -876.213)"/></g><g transform="translate(9.521)"><path class="k" d="M827.333,700.557c.383.664,1.159,2.012,1.748,3.031,1.98,3.423,3.921,6.862,5.912,10.278q.15.217.272.438a5.363,5.363,0,0,1,.588,2.3c0,.005,0,.011,0,.016h8.084a7.689,7.689,0,0,0-1.458-4.274,7.508,7.508,0,0,1-.446-.761q-2.865-4.947-5.728-9.9c-.277-.524-.539-.974-.745-1.333a2.021,2.021,0,0,0-1.9-1.078c-1.063,0-4.7-.034-5.708,0-.076,0-.3,0-.351,0a.574.574,0,0,0-.574.574.7.7,0,0,0,.154.416S827.278,700.46,827.333,700.557Z" transform="translate(-827.022 -699.27)"/><path class="l" d="M864.872,961.035q-.516.9-1.031,1.793h8.331l1.029-1.793Z" transform="translate(-860.215 -935.258)"/><path class="m" d="M845.06,995.614q-.513.9-1.026,1.793h8.328l1.028-1.793Z" transform="translate(-842.359 -966.432)"/><path class="n" d="M828.332,1030.193l-.317.557-.013.023,0,0,0,.007a2.294,2.294,0,0,0-.356.812.462.462,0,0,0,.046.262c0,.007.005.014.009.021a.614.614,0,0,0,.107.162c.132.15.372.242,1.045.217,1.766-.019,3.467-.1,5.231-.027a2.015,2.015,0,0,0,1.737-.69,3.318,3.318,0,0,0,.406-.573q.225-.389.445-.775Z" transform="translate(-827.576 -997.606)"/><path class="o" d="M884.753,926.456c-.148.252-.291.506-.424.764l-.078.149-.507.879h8.326l1.029-1.793Z" transform="translate(-878.158 -904.084)"/><path class="p" d="M904.51,891.876c-.061.166-.129.331-.206.5q-.088.167-.192.333c-.2.317-.392.639-.582.964h8.353a8.316,8.316,0,0,0,.783-1.793Z" transform="translate(-895.996 -872.909)"/></g></g></g></svg>