<svg xmlns="http://www.w3.org/2000/svg" width="17" height="17" viewBox="0 0 17 17"><defs><style>.a{fill:#ffc5c5;opacity:0;}.b{fill:#444552;}.c{fill:#0477fd;}</style></defs><g transform="translate(-25 -385)"><rect class="a" width="17" height="17" transform="translate(25 385)"/><g transform="translate(-723.537 286.912)"><path class="b" d="M757.055,98.6c-4.4,0-7.975,3.188-7.975,7.108a7.115,7.115,0,0,0,4.526,6.4,2.3,2.3,0,0,1-.272.76c-.252.542-.514,1.1-.3,1.441a.6.6,0,0,0,.548.239,5.207,5.207,0,0,0,2.252-.889,6.266,6.266,0,0,0,.886-.618,1.275,1.275,0,0,1,.332-.226c4.4,0,7.975-3.188,7.975-7.108S761.452,98.6,757.055,98.6Zm-1.638,13.249-.03.023a1.762,1.762,0,0,0-1.061-1.4,5.273,5.273,0,0,1-3.445-4.76c0-2.926,2.77-5.307,6.174-5.307s6.175,2.381,6.175,5.307-2.771,5.307-6.175,5.307a1.825,1.825,0,0,0-.7.139,2.191,2.191,0,0,0-.379.2,4.616,4.616,0,0,0-.387.29A.481.481,0,0,0,755.416,111.844Z" transform="translate(0 0)"/><g transform="translate(754.139 103.409)"><path class="c" d="M758.57,102.932h-4.034a.9.9,0,0,0,0,1.8h4.034a.9.9,0,0,0,0-1.8Z" transform="translate(-753.637 -102.932)"/><path class="c" d="M757.463,105.628h-2.927a.9.9,0,0,0,0,1.8h2.927a.9.9,0,1,0,0-1.8Z" transform="translate(-753.637 -102.635)"/></g></g></g></svg>