<svg xmlns="http://www.w3.org/2000/svg" xmlns:xlink="http://www.w3.org/1999/xlink" width="300" height="300" viewBox="0 0 300 300"><defs><style>.a{fill:#fff;stroke:#707070;}.b{fill:#ff9191;opacity:0;}.c{clip-path:url(#a);}.d,.j{opacity:0.65;}.d{fill:url(#b);}.e{opacity:0.52;}.f{fill:#c3d1dd;opacity:0.6;}.f,.g,.i{fill-rule:evenodd;}.g,.i{opacity:0.2;}.g{fill:url(#c);}.h{opacity:0.56;}.i{fill:url(#d);}.k{opacity:0.63;}.l{fill:url(#g);}.m{fill:none;stroke:red;stroke-miterlimit:10;stroke-width:0.3px;}.n{fill:url(#h);}.o{fill:url(#i);}.p{fill:url(#j);}.q{fill:url(#k);}.r{opacity:0.8;}.s{fill:#5291ff;}.t,.u{opacity:0.45;}.t{fill:url(#l);}.u{fill:url(#m);}</style><clipPath id="a"><rect class="a" width="293" height="120" transform="translate(-0.168 0.01)"/></clipPath><linearGradient id="b" x1="0.5" y1="0.033" x2="0.5" y2="0.504" gradientUnits="objectBoundingBox"><stop offset="0.004" stop-color="#bbd7ff"/><stop offset="0.065" stop-color="#bbd7ff" stop-opacity="0.859"/><stop offset="0.162" stop-color="#bbd7ff" stop-opacity="0.659"/><stop offset="0.263" stop-color="#bbd7ff" stop-opacity="0.482"/><stop offset="0.368" stop-color="#bbd7ff" stop-opacity="0.333"/><stop offset="0.475" stop-color="#bbd7ff" stop-opacity="0.212"/><stop offset="0.587" stop-color="#bbd7ff" stop-opacity="0.118"/><stop offset="0.705" stop-color="#bbd7ff" stop-opacity="0.051"/><stop offset="0.834" stop-color="#bbd7ff" stop-opacity="0.012"/><stop offset="0.993" stop-color="#bbd7ff" stop-opacity="0"/></linearGradient><linearGradient id="c" x1="0.5" y1="0.026" x2="0.5" y2="0.808" gradientUnits="objectBoundingBox"><stop offset="0" stop-color="#c8d6e5" stop-opacity="0"/><stop offset="1" stop-color="#8fa7bc"/></linearGradient><linearGradient id="d" x1="0.5" y1="0.026" x2="0.5" y2="0.808" xlink:href="#c"/><linearGradient id="g" x1="0.577" y1="-0.294" x2="0.492" y2="0.42" gradientUnits="objectBoundingBox"><stop offset="0" stop-color="#b3d3fc"/><stop offset="0.087" stop-color="#b4d3fb" stop-opacity="0.957"/><stop offset="0.243" stop-color="#b8d5f9" stop-opacity="0.835"/><stop offset="0.448" stop-color="#bfd7f6" stop-opacity="0.639"/><stop offset="0.694" stop-color="#c8dbf2" stop-opacity="0.373"/><stop offset="0.974" stop-color="#d4dfed" stop-opacity="0.031"/><stop offset="1" stop-color="#d6e0ed" stop-opacity="0"/></linearGradient><linearGradient id="h" x1="0.5" y1="0.112" x2="0.5" y2="0.879" gradientUnits="objectBoundingBox"><stop offset="0" stop-color="#8db3fe"/><stop offset="1" stop-color="#d5e2f8"/></linearGradient><linearGradient id="i" x1="0.483" y1="0.187" x2="0.502" y2="0.929" gradientUnits="objectBoundingBox"><stop offset="0" stop-color="#84aafe"/><stop offset="1" stop-color="#e6edf7"/></linearGradient><linearGradient id="j" x1="0.883" y1="0.68" x2="-0.097" y2="0.134" gradientUnits="objectBoundingBox"><stop offset="0" stop-color="#8db3fe"/><stop offset="1" stop-color="#dae5f8"/></linearGradient><linearGradient id="k" x1="0.5" y1="0.066" x2="0.5" y2="0.965" gradientUnits="objectBoundingBox"><stop offset="0" stop-color="#8db3fe"/><stop offset="1" stop-color="#d6e3f8"/></linearGradient><linearGradient id="l" y1="0.098" y2="1.002" xlink:href="#b"/><linearGradient id="m" y1="0.098" y2="1.002" xlink:href="#b"/></defs><g transform="translate(-0.363)"><rect class="b" width="300" height="300" transform="translate(0.363)"/><g transform="translate(3.531 21.719)"><g class="c" transform="translate(0 91.271)"><ellipse class="d" cx="146.199" cy="90.403" rx="146.199" ry="90.403" transform="translate(0.528 15.355)"/></g><g transform="translate(5.413)"><g transform="translate(52.208 127.234)"><g class="e" transform="translate(155.496 14.729)"><path class="f" d="M455.437,417.84a.136.136,0,0,0,0,.258l2.8,1.619a.5.5,0,0,0,.448,0L461.5,418.1a.136.136,0,0,0,0-.258l-2.8-1.618a.5.5,0,0,0-.447,0Z" transform="translate(-455.343 -409.314)"/><path class="g" d="M455.345,413.88v-8.638h6.248v8.632a.147.147,0,0,1-.091.151l-2.819,1.619a.5.5,0,0,1-.448,0l-2.8-1.619A.147.147,0,0,1,455.345,413.88Z" transform="translate(-455.343 -405.242)"/></g><g class="h"><path class="f" d="M207.577,398.349a.179.179,0,0,0,0,.339l3.688,2.132a.655.655,0,0,0,.59,0l3.712-2.132a.179.179,0,0,0,0-.339l-3.688-2.132a.658.658,0,0,0-.589,0Z" transform="translate(-207.454 -387.123)"/><path class="i" d="M207.457,393.135V381.761h8.227v11.366a.194.194,0,0,1-.12.2l-3.712,2.132a.655.655,0,0,1-.59,0l-3.688-2.132A.193.193,0,0,1,207.457,393.135Z" transform="translate(-207.454 -381.761)"/></g><g class="j" transform="translate(39.368 19.827)"><path class="f" d="M270.32,427.792a.156.156,0,0,0,0,.3l3.207,1.854a.571.571,0,0,0,.512,0l3.228-1.854a.156.156,0,0,0,0-.3l-3.207-1.853a.571.571,0,0,0-.513,0Z" transform="translate(-270.213 -418.031)"/><path class="i" d="M270.215,423.258v-9.89h7.154v9.883a.168.168,0,0,1-.1.173l-3.228,1.854a.571.571,0,0,1-.512,0l-3.207-1.854A.17.17,0,0,1,270.215,423.258Z" transform="translate(-270.214 -413.368)"/></g><g class="k" transform="translate(83.918 7.472)"><path class="f" d="M341.358,410.407a.181.181,0,0,0,0,.342l3.72,2.15a.662.662,0,0,0,.595,0l3.744-2.15a.181.181,0,0,0,0-.342l-3.72-2.15a.662.662,0,0,0-.595,0Z" transform="translate(-341.234 -399.082)"/><path class="i" d="M341.236,405.147V393.673h8.3v11.466a.194.194,0,0,1-.121.2l-3.744,2.15a.662.662,0,0,1-.595,0l-3.72-2.15A.2.2,0,0,1,341.236,405.147Z" transform="translate(-341.234 -393.673)"/></g></g><path class="l" d="M274.647,411.454l40.577-38.028-13.4-5.441-78.594-1.747-30.293,9.547L161.646,404.3l3.121,14.866L209.1,430.18l40.14-6.609Z" transform="translate(-138.173 -248.741)"/><path class="m" d="M252.665,338.352q.339.009.659,0" transform="translate(-172.097 -238.347)"/><path class="n" d="M370.947,221.055a3.039,3.039,0,0,1-2.887,2.11l-7.015.033-64.126.274a22.927,22.927,0,0,0,.64-8.791c-.484-2.606-1.208-4.37-2.463-5.585-6.59-6.395-14.8-.2-18.634,14.82-.216.849-.4,1.724-.542,2.632,1.273-17.877,9.542-22.756,13.389-22.756,23.409,0,69.783-.725,77.065.562C374.833,205.85,372.416,216.47,370.947,221.055Z" transform="translate(-180.764 -188.119)"/><path class="o" d="M362.176,308.451a13.528,13.528,0,0,1-11.326,7.1H272.067c11.874-.561,12.743-24.9,10.542-34.735-.523-2.338-2.078-7.426-3.736-13.814-2.978-11.515-6.27-27.25-4.389-38.673.144-.908.326-1.783.542-2.632,3.834-15.016,12.044-21.215,18.634-14.82,1.255,1.215,1.979,2.978,2.463,5.585a22.927,22.927,0,0,1-.64,8.791l64.126-.274c-1.025,7.544-1.182,23.509,2.941,34.526C367.29,272.174,370.079,293.7,362.176,308.451Z" transform="translate(-179.328 -189.905)"/><path class="p" d="M264.988,350.391H264.3a10.212,10.212,0,0,1-1.96-.248c-11.084-2.43-4.3-23.383-3.828-29.771.033-.438.059-.863.085-1.28.659-11.371-1.79-15.6-5.526-17.25h18.719c1.659,6.388,3.214,11.476,3.736,13.814C277.732,325.486,276.863,349.829,264.988,350.391Z" transform="translate(-172.25 -224.74)"/><path class="q" d="M249.18,318.491c-7.048-.529-18.04,1.287-21.234,1.855-.294-3.239-1.47-22.886,13.54-19.784a10.464,10.464,0,0,1,2.169.679C247.391,302.888,249.84,307.12,249.18,318.491Z" transform="translate(-162.829 -224.139)"/><g class="r" transform="translate(115.43 52.317)"><g transform="translate(15.505 20.35)"><path class="s" d="M368.929,301.956H336.551a3.592,3.592,0,0,1,0-7.185h32.378a3.592,3.592,0,0,1,0,7.185Z" transform="translate(-332.959 -294.771)"/></g><ellipse class="s" cx="3.68" cy="3.68" rx="3.68" ry="3.68" transform="translate(4.115 20.35)"/><g transform="translate(11.39)"><path class="s" d="M362.369,269.515H329.991a3.592,3.592,0,0,1,0-7.185h32.378a3.592,3.592,0,0,1,0,7.185Z" transform="translate(-326.399 -262.33)"/></g><ellipse class="s" cx="3.68" cy="3.68" rx="3.68" ry="3.68" transform="translate(0 0)"/><g transform="translate(20.38 40.9)"><path class="s" d="M376.7,334.717H344.323a3.592,3.592,0,0,1,0-7.185H376.7a3.592,3.592,0,1,1,0,7.185Z" transform="translate(-340.731 -327.532)"/></g><ellipse class="s" cx="3.68" cy="3.68" rx="3.68" ry="3.68" transform="translate(8.99 40.9)"/></g><path class="t" d="M531.293,317.086a9.409,9.409,0,0,0-11.392-9.2,14.216,14.216,0,0,0-26.522.807,8.9,8.9,0,0,0-.041,17.8v.006h28.37c.057,0,.112.009.17.009s.112-.008.169-.009h.047v0A9.41,9.41,0,0,0,531.293,317.086Z" transform="translate(-258.526 -223.745)"/><path class="u" d="M170.964,258.459a9.409,9.409,0,0,0-11.392-9.2,14.216,14.216,0,0,0-26.522.807,8.9,8.9,0,0,0-.041,17.8v.006h28.37c.057,0,.112.009.169.009s.113-.008.17-.009h.046v0A9.411,9.411,0,0,0,170.964,258.459Z" transform="translate(-124.225 -201.894)"/><path class="t" d="M433.125,196.84a9.409,9.409,0,0,0-11.393-9.2,14.216,14.216,0,0,0-26.522.807,8.9,8.9,0,0,0-.041,17.8v.006h28.37c.057,0,.112.009.17.009s.112-.008.169-.009h.046v0A9.411,9.411,0,0,0,433.125,196.84Z" transform="translate(-221.937 -178.927)"/></g></g></g></svg>