<svg xmlns="http://www.w3.org/2000/svg" xmlns:xlink="http://www.w3.org/1999/xlink" width="50" height="50" viewBox="0 0 50 50"><defs><style>.a{fill:url(#a);}.b,.c{fill:#fff;}.b{opacity:0.5;}</style><linearGradient id="a" x1="0.074" x2="1" y2="1" gradientUnits="objectBoundingBox"><stop offset="0" stop-color="#a1bfff"/><stop offset="1" stop-color="#4e73f0"/></linearGradient></defs><g transform="translate(-280 -208)"><rect class="a" width="50" height="50" rx="10" transform="translate(280 208)"/><g transform="translate(294.852 218.818)"><path class="b" d="M994.864,313.373v9.442h4.009a1.822,1.822,0,0,0,1.822-1.821v-6.276a1.822,1.822,0,0,0-1.145-1.691l-2.625-1.05A1.5,1.5,0,0,0,994.864,313.373Z" transform="translate(-977.874 -299.692)"/><path class="c" d="M981.533,307.463v14.512a2.865,2.865,0,0,0,2.866,2.866h11.129V303.827a2.109,2.109,0,0,0-2.687-2.028l-8.952,2.544A3.244,3.244,0,0,0,981.533,307.463Zm9.587,9.879h-4.781a1.242,1.242,0,0,1-1.05-1.167,1.1,1.1,0,0,1,1.166-1.166h4.665a1.167,1.167,0,0,1,0,2.333Zm0-5.6h-4.781a1.24,1.24,0,0,1-1.05-1.166,1.1,1.1,0,0,1,1.166-1.166h4.665a1.166,1.166,0,1,1,0,2.332Z" transform="translate(-981.533 -301.717)"/></g></g></svg>