<svg xmlns="http://www.w3.org/2000/svg" xmlns:xlink="http://www.w3.org/1999/xlink" width="50" height="50" viewBox="0 0 50 50"><defs><style>.a{fill:url(#a);}.b,.c{fill:#fff;}.b{opacity:0.6;}</style><linearGradient id="a" x1="0.074" x2="1" y2="1" gradientUnits="objectBoundingBox"><stop offset="0" stop-color="#88e8e4"/><stop offset="1" stop-color="#00d2c4"/></linearGradient></defs><g transform="translate(-504 -208)"><rect class="a" width="50" height="50" rx="10" transform="translate(504 208)"/><g transform="translate(516.779 220.075)"><path class="b" d="M1250.072,390.7a4.715,4.715,0,0,0-4.493-4.709,7.345,7.345,0,0,1-3.213,8.353,4.715,4.715,0,0,0,7.706-3.644Z" transform="translate(-1227.098 -381.797)"/><path class="b" d="M1219.681,480.407a6.306,6.306,0,0,0-2.315-2.791h1.5a4.453,4.453,0,0,1,4.453,4.453v.524a1.311,1.311,0,0,1-1.309,1.31h-1.848a2.377,2.377,0,0,0,.014-.262v-.786a6.245,6.245,0,0,0-.495-2.447Z" transform="translate(-1197.202 -461.901)"/><path class="c" d="M1252.233,479.15a5.2,5.2,0,0,1,3.7-1.534h10.477a5.238,5.238,0,0,1,5.238,5.238v.786a1.311,1.311,0,0,1-1.31,1.31h-18.334a1.312,1.312,0,0,1-1.31-1.31v-.786a5.2,5.2,0,0,1,1.534-3.7Z" transform="translate(-1250.699 -461.901)"/><ellipse class="c" cx="6.286" cy="6.286" rx="6.286" ry="6.286" transform="translate(4.191)"/></g></g></svg>