<svg xmlns="http://www.w3.org/2000/svg" xmlns:xlink="http://www.w3.org/1999/xlink" width="32" height="32" viewBox="0 0 32 32"><defs><style>.a{fill:url(#a);}.b{fill:#fff;}</style><linearGradient id="a" y1="0.5" x2="1" y2="0.5" gradientUnits="objectBoundingBox"><stop offset="0" stop-color="#58a2fc"/><stop offset="1" stop-color="#326efb"/></linearGradient></defs><g transform="translate(-798.039 -141.232)"><g transform="translate(798.039 141.232)"><ellipse class="a" cx="16" cy="16" rx="16" ry="16"/></g><g transform="translate(806.645 149.703)"><path class="b" d="M807.985,149.665h3.607a1.275,1.275,0,0,1,1.443,1.443v3.607a1.275,1.275,0,0,1-1.443,1.443h-3.607a1.275,1.275,0,0,1-1.443-1.443v-3.607A1.275,1.275,0,0,1,807.985,149.665Z" transform="translate(-806.542 -149.602)"/><path class="b" d="M807.985,158.238h3.607a1.275,1.275,0,0,1,1.443,1.443v3.607a1.275,1.275,0,0,1-1.443,1.443h-3.607a1.275,1.275,0,0,1-1.443-1.443v-3.607a1.275,1.275,0,0,1,1.443-1.443Z" transform="translate(-806.542 -149.513)"/><path class="b" d="M816.78,149.6h3.607a1.276,1.276,0,0,1,1.443,1.444v3.607a1.275,1.275,0,0,1-1.443,1.443H816.78a1.275,1.275,0,0,1-1.443-1.443v-3.607A1.276,1.276,0,0,1,816.78,149.6Z" transform="translate(-806.45 -149.603)"/><path class="b" d="M823.805,164.662l-1.317-1.317a3.583,3.583,0,1,0-.907,1.135l1.2,1.2a.722.722,0,1,0,1.021-1.022Zm-4.513-.792a2.164,2.164,0,1,1,2.164-2.163A2.167,2.167,0,0,1,819.292,163.87Z" transform="translate(-806.447 -149.514)"/></g></g></svg>