<svg xmlns="http://www.w3.org/2000/svg" width="16" height="16" viewBox="0 0 16 16"><defs><style>.a{fill:#f6c6c6;opacity:0;}.b{fill:#444552;}.c{fill:#0477fd;}</style></defs><g transform="translate(-33 -525)"><rect class="a" width="16" height="16" transform="translate(33 525)"/><g transform="translate(-577.485 162.105)"><path class="b" d="M623.6,364.506l-4.7-1.378a2.334,2.334,0,0,0-.378-.03,2.261,2.261,0,0,0-.4.035l-4.661,1.367a2.337,2.337,0,0,0-1.967,2.316v4.465a5.468,5.468,0,0,0,2.392,4.521l4.636,2.962,4.641-2.965a5.464,5.464,0,0,0,2.388-4.517v-4.465A2.326,2.326,0,0,0,623.6,364.506Zm-1.382,9.906-3.67,2.356-3.728-2.352a3.791,3.791,0,0,1-1.656-3.133v-4.22a.975.975,0,0,1,.837-.96l4.2-1.284a1.855,1.855,0,0,1,.318-.026,2.163,2.163,0,0,1,.295.019l4.245,1.3a.964.964,0,0,1,.813.956v4.22A3.786,3.786,0,0,1,622.218,374.411Z" transform="translate(0 0)"/><path class="c" d="M621.549,367.611a2.1,2.1,0,0,0-2.945.006l-.278.316-.324-.322a2.1,2.1,0,0,0-2.968,2.981l3.29,3.05,3.261-3.056a2.1,2.1,0,0,0-.036-2.975Zm-5.45,1.084a.589.589,0,0,1,.427-.181.6.6,0,0,1,.416.168l1.428,1.3,1.3-1.3a.595.595,0,0,1,.847.834l-2.173,2.063-2.25-2.057A.593.593,0,0,1,616.1,368.695Z" transform="translate(0.209 0.279)"/></g></g></svg>