<svg xmlns="http://www.w3.org/2000/svg" xmlns:xlink="http://www.w3.org/1999/xlink" width="220" height="220" viewBox="0 0 220 220"><defs><style>.a{fill:#fff;stroke:#707070;}.b{fill:#ff9191;opacity:0;}.c{clip-path:url(#a);}.d,.j{opacity:0.65;}.d{fill:url(#b);}.e{opacity:0.52;}.f{fill:#c3d1dd;opacity:0.6;}.f,.g,.i{fill-rule:evenodd;}.g,.i{opacity:0.2;}.g{fill:url(#c);}.h{opacity:0.56;}.i{fill:url(#d);}.k{opacity:0.63;}.l{fill:url(#g);}.m{fill:none;stroke:red;stroke-miterlimit:10;stroke-width:0.3px;}.n{fill:url(#h);}.o{fill:url(#i);}.p{fill:url(#j);}.q{fill:url(#k);}.r{opacity:0.8;}.s{fill:#5291ff;}.t,.u{opacity:0.45;}.t{fill:url(#l);}.u{fill:url(#m);}</style><clipPath id="a"><rect class="a" width="215" height="88" transform="translate(-0.201 0.134)"/></clipPath><linearGradient id="b" x1="0.5" y1="0.033" x2="0.5" y2="0.504" gradientUnits="objectBoundingBox"><stop offset="0.004" stop-color="#bbd7ff"/><stop offset="0.065" stop-color="#bbd7ff" stop-opacity="0.859"/><stop offset="0.162" stop-color="#bbd7ff" stop-opacity="0.659"/><stop offset="0.263" stop-color="#bbd7ff" stop-opacity="0.482"/><stop offset="0.368" stop-color="#bbd7ff" stop-opacity="0.333"/><stop offset="0.475" stop-color="#bbd7ff" stop-opacity="0.212"/><stop offset="0.587" stop-color="#bbd7ff" stop-opacity="0.118"/><stop offset="0.705" stop-color="#bbd7ff" stop-opacity="0.051"/><stop offset="0.834" stop-color="#bbd7ff" stop-opacity="0.012"/><stop offset="0.993" stop-color="#bbd7ff" stop-opacity="0"/></linearGradient><linearGradient id="c" x1="0.5" y1="0.026" x2="0.5" y2="0.808" gradientUnits="objectBoundingBox"><stop offset="0" stop-color="#c8d6e5" stop-opacity="0"/><stop offset="1" stop-color="#8fa7bc"/></linearGradient><linearGradient id="d" x1="0.5" y1="0.026" x2="0.5" y2="0.808" xlink:href="#c"/><linearGradient id="g" x1="0.577" y1="-0.294" x2="0.492" y2="0.42" gradientUnits="objectBoundingBox"><stop offset="0" stop-color="#b3d3fc"/><stop offset="0.087" stop-color="#b4d3fb" stop-opacity="0.957"/><stop offset="0.243" stop-color="#b8d5f9" stop-opacity="0.835"/><stop offset="0.448" stop-color="#bfd7f6" stop-opacity="0.639"/><stop offset="0.694" stop-color="#c8dbf2" stop-opacity="0.373"/><stop offset="0.974" stop-color="#d4dfed" stop-opacity="0.031"/><stop offset="1" stop-color="#d6e0ed" stop-opacity="0"/></linearGradient><linearGradient id="h" x1="0.5" y1="0.112" x2="0.5" y2="0.879" gradientUnits="objectBoundingBox"><stop offset="0" stop-color="#8db3fe"/><stop offset="1" stop-color="#d5e2f8"/></linearGradient><linearGradient id="i" x1="0.483" y1="0.187" x2="0.502" y2="0.929" gradientUnits="objectBoundingBox"><stop offset="0" stop-color="#84aafe"/><stop offset="1" stop-color="#e6edf7"/></linearGradient><linearGradient id="j" x1="0.883" y1="0.68" x2="-0.097" y2="0.134" gradientUnits="objectBoundingBox"><stop offset="0" stop-color="#8db3fe"/><stop offset="1" stop-color="#dae5f8"/></linearGradient><linearGradient id="k" x1="0.5" y1="0.066" x2="0.5" y2="0.965" gradientUnits="objectBoundingBox"><stop offset="0" stop-color="#8db3fe"/><stop offset="1" stop-color="#d6e3f8"/></linearGradient><linearGradient id="l" y1="0.098" y2="1.002" xlink:href="#b"/><linearGradient id="m" y1="0.098" y2="1.002" xlink:href="#b"/></defs><g transform="translate(-0.363)"><rect class="b" width="220" height="220" transform="translate(0.363)"/><g transform="translate(2.563 15.927)"><g class="c" transform="translate(0 66.94)"><ellipse class="d" cx="107.212" cy="66.295" rx="107.212" ry="66.295" transform="translate(0.51 11.253)"/></g><g transform="translate(4.093)"><g transform="translate(38.286 93.305)"><g class="e" transform="translate(114.03 10.801)"><path class="f" d="M455.412,417.394a.1.1,0,0,0,0,.189l2.054,1.187a.365.365,0,0,0,.328,0l2.067-1.187a.1.1,0,0,0,0-.189l-2.054-1.187a.365.365,0,0,0-.328,0Z" transform="translate(-455.343 -411.142)"/><path class="g" d="M455.345,411.576v-6.334h4.582v6.33a.108.108,0,0,1-.067.111l-2.067,1.187a.366.366,0,0,1-.328,0l-2.054-1.187A.107.107,0,0,1,455.345,411.576Z" transform="translate(-455.343 -405.242)"/></g><g class="h"><path class="f" d="M207.544,397.762a.131.131,0,0,0,0,.249l2.7,1.563a.48.48,0,0,0,.432,0l2.722-1.563a.131.131,0,0,0,0-.249l-2.7-1.563a.482.482,0,0,0-.432,0Z" transform="translate(-207.454 -389.53)"/><path class="i" d="M207.456,390.1v-8.341h6.033V390.1a.142.142,0,0,1-.088.146l-2.722,1.563a.48.48,0,0,1-.432,0l-2.7-1.563A.142.142,0,0,1,207.456,390.1Z" transform="translate(-207.455 -381.761)"/></g><g class="j" transform="translate(28.87 14.539)"><path class="f" d="M270.291,427.282a.115.115,0,0,0,0,.217l2.352,1.359a.419.419,0,0,0,.376,0l2.367-1.359a.115.115,0,0,0,0-.217l-2.352-1.359a.419.419,0,0,0-.376,0Z" transform="translate(-270.213 -420.123)"/><path class="i" d="M270.215,420.62v-7.252h5.246v7.248a.123.123,0,0,1-.076.127l-2.367,1.359a.419.419,0,0,1-.376,0l-2.352-1.359A.125.125,0,0,1,270.215,420.62Z" transform="translate(-270.214 -413.368)"/></g><g class="k" transform="translate(61.54 5.48)"><path class="f" d="M341.325,409.815a.133.133,0,0,0,0,.251l2.728,1.577a.485.485,0,0,0,.436,0l2.746-1.577a.133.133,0,0,0,0-.251l-2.728-1.576a.485.485,0,0,0-.436,0Z" transform="translate(-341.234 -401.51)"/><path class="i" d="M341.235,402.087v-8.414h6.087v8.408a.143.143,0,0,1-.089.147l-2.746,1.577a.485.485,0,0,1-.436,0l-2.728-1.577A.144.144,0,0,1,341.235,402.087Z" transform="translate(-341.234 -393.673)"/></g></g><path class="l" d="M244.513,399.4l29.757-27.887-9.83-3.99L206.8,366.238l-22.215,7-22.943,20.91,2.289,10.9,32.513,8.078,29.436-4.847Z" transform="translate(-144.432 -280.074)"/><path class="m" d="M252.665,338.352q.248.007.483,0" transform="translate(-193.582 -265.016)"/><path class="n" d="M345.606,216.4a2.229,2.229,0,0,1-2.117,1.547l-5.144.024-47.026.2a16.814,16.814,0,0,0,.47-6.447,7.267,7.267,0,0,0-1.806-4.1c-4.833-4.689-10.853-.144-13.665,10.868-.158.622-.292,1.265-.4,1.93.934-13.11,7-16.688,9.819-16.688,17.167,0,51.174-.532,56.515.412C348.456,205.247,346.684,213.035,345.606,216.4Z" transform="translate(-206.139 -192.244)"/><path class="o" d="M338.147,281.766a9.92,9.92,0,0,1-8.306,5.21H272.067c8.708-.412,9.345-18.263,7.731-25.472-.383-1.714-1.524-5.446-2.74-10.13-2.184-8.444-4.6-19.983-3.219-28.36.105-.666.239-1.308.4-1.93,2.812-11.012,8.832-15.557,13.665-10.868a7.267,7.267,0,0,1,1.806,4.1,16.813,16.813,0,0,1-.47,6.447l47.026-.2c-.752,5.532-.867,17.24,2.157,25.319C341.9,255.163,343.942,270.951,338.147,281.766Z" transform="translate(-204.059 -194.832)"/><path class="p" d="M261.811,337.444h-.5a7.489,7.489,0,0,1-1.437-.182c-8.128-1.782-3.157-17.148-2.807-21.832.024-.321.043-.633.063-.939.483-8.339-1.312-11.443-4.052-12.65H266.8c1.216,4.684,2.357,8.416,2.74,10.13C271.156,319.181,270.519,337.032,261.811,337.444Z" transform="translate(-193.803 -245.3)"/><path class="q" d="M243.479,313.622c-5.168-.388-13.229.943-15.572,1.36-.216-2.375-1.078-16.783,9.929-14.508a7.674,7.674,0,0,1,1.59.5C242.166,302.179,243.962,305.283,243.479,313.622Z" transform="translate(-180.155 -244.431)"/><g class="r" transform="translate(84.648 38.366)"><g transform="translate(11.37 14.923)"><path class="s" d="M359.337,300.04H335.593a2.634,2.634,0,0,1,0-5.269h23.744a2.634,2.634,0,0,1,0,5.269Z" transform="translate(-332.959 -294.771)"/></g><ellipse class="s" cx="2.699" cy="2.699" rx="2.699" ry="2.699" transform="translate(3.018 14.923)"/><g transform="translate(8.353)"><path class="s" d="M352.777,267.6H329.033a2.634,2.634,0,1,1,0-5.269h23.744a2.634,2.634,0,1,1,0,5.269Z" transform="translate(-326.399 -262.33)"/></g><ellipse class="s" cx="2.699" cy="2.699" rx="2.699" ry="2.699" transform="translate(0 0)"/><g transform="translate(14.946 29.993)"><path class="s" d="M367.109,332.8H343.365a2.634,2.634,0,0,1,0-5.269h23.744a2.634,2.634,0,1,1,0,5.269Z" transform="translate(-340.731 -327.532)"/></g><ellipse class="s" cx="2.699" cy="2.699" rx="2.699" ry="2.699" transform="translate(6.592 29.993)"/></g><path class="t" d="M518.83,312.309a6.9,6.9,0,0,0-8.354-6.75,10.425,10.425,0,0,0-19.449.592A6.527,6.527,0,0,0,491,319.2v0h20.8c.042,0,.082.006.125.006s.082-.006.124-.006h.034A6.9,6.9,0,0,0,518.83,312.309Z" transform="translate(-318.801 -243.859)"/><path class="u" d="M158.5,253.682a6.9,6.9,0,0,0-8.354-6.75,10.425,10.425,0,0,0-19.449.592,6.527,6.527,0,0,0-.03,13.053v0h20.8c.042,0,.082.006.124.006s.083-.006.125-.006h.034v0A6.9,6.9,0,0,0,158.5,253.682Z" transform="translate(-124.225 -212.201)"/><path class="t" d="M420.661,192.063a6.9,6.9,0,0,0-8.355-6.75,10.425,10.425,0,0,0-19.45.592,6.527,6.527,0,0,0-.03,13.053v0h20.8c.042,0,.082.006.125.006s.082-.006.124-.006h.034A6.9,6.9,0,0,0,420.661,192.063Z" transform="translate(-265.79 -178.927)"/></g></g></g></svg>