<svg xmlns="http://www.w3.org/2000/svg" width="38" height="26.127" viewBox="0 0 38 26.127"><defs><style>.a{fill:#2f88ff;}</style></defs><path class="a" d="M840.763,851.323a12.013,12.013,0,0,0-11.717-9.8,11.545,11.545,0,0,0-10.449,6.534,9.777,9.777,0,0,0-8.553,9.8,9.679,9.679,0,0,0,9.5,9.794h20.582a7.967,7.967,0,0,0,7.917-8.164A8.2,8.2,0,0,0,840.763,851.323Zm-9.058,4.528v4.984a.5.5,0,0,1-.5.5h-4.319a.5.5,0,0,1-.5-.5v-4.984h-2.809a.5.5,0,0,1-.357-.846l5.468-5.637a.5.5,0,0,1,.715,0l5.468,5.637a.5.5,0,0,1-.358.846Z" transform="translate(-810.043 -841.524)"/></svg>