<svg xmlns="http://www.w3.org/2000/svg" xmlns:xlink="http://www.w3.org/1999/xlink" width="106"
    height="109" viewBox="0 0 106 109">
    <defs>
        <style>.a{opacity:0.995;fill:url(#a);}.b{fill:#fff;}.c{filter:url(#b);}</style>
        <linearGradient id="a" y1="0.5" x2="1" y2="0.5" gradientUnits="objectBoundingBox">
            <stop offset="0" stop-color="#04d8fd" />
            <stop offset="1" stop-color="#0477fd" />
        </linearGradient>
        <filter id="b" x="0" y="0" width="106" height="109" filterUnits="userSpaceOnUse">
            <feOffset dy="4" input="SourceAlpha" />
            <feGaussianBlur stdDeviation="4" result="c" />
            <feFlood flood-color="#b7d5f8" />
            <feComposite operator="in" in2="c" />
            <feComposite in="SourceGraphic" />
        </filter>
    </defs>
    <g transform="translate(-1487 -183)">
        <g class="c" transform="matrix(1, 0, 0, 1, 1487, 183)">
            <rect class="a" width="85" height="82" rx="15" transform="translate(12 93) rotate(-90)" />
        </g>
        <g transform="translate(777.533 -490.686)">
            <path class="b"
                d="M970.684,703.035c-.4-.752-.774-1.4-1.07-1.914a2.9,2.9,0,0,0-2.736-1.548c-1.527.007-2.511.007-2.581.007a.825.825,0,0,0-.825.825,1,1,0,0,0,.221.6s.146.262.226.4c.289.5,2.324,4.08,4.792,8.374h5.924C973.274,707.426,972.041,705.389,970.684,703.035Z"
                transform="translate(-200.129 -0.26)" />
            <path class="b"
                d="M979.863,794.938a10.744,10.744,0,0,1-.64-1.093c-.807-1.393-2.059-3.687-2.866-5.08h-5.869c1.679,2.919,3.733,6.609,4.746,8.349q.215.312.391.63a7.7,7.7,0,0,1,.844,3.309,7.548,7.548,0,0,1-.752,3.051q-.127.24-.275.478c-.593.944-8.335,14.439-11.025,19.169l-.019.034,0,.006-.006.01a3.291,3.291,0,0,0-.511,1.167.661.661,0,0,0,.066.376c0,.01.008.02.013.03a.9.9,0,0,0,.154.233c.19.215.534.306,1.5.311,1.09.006,1.244-.022,1.387-.02a3.01,3.01,0,0,0,2.5-1.011,4.761,4.761,0,0,0,.582-.823q.974-1.688,1.9-3.332,3.9-6.8,7.842-13.667l.105-.172c.031-.049.059-.1.086-.156C982.663,802.629,982.6,799.158,979.863,794.938Z"
                transform="translate(-200.473 -76.824)" />
            <path class="b"
                d="M1071.953,718.149a10.834,10.834,0,0,1-.64-1.093q-4.114-7.1-8.225-14.211c-.4-.752-.774-1.4-1.07-1.914a2.9,2.9,0,0,0-2.736-1.548c-1.527.007-2.511.007-2.58.007a.825.825,0,0,0-.825.825,1.007,1.007,0,0,0,.221.6s.146.261.226.4c.551.953,8.141,14.206,11,19.113.144.208.273.418.391.63a7.707,7.707,0,0,1,.844,3.308,7.55,7.55,0,0,1-.752,3.051c-.085.16-.176.319-.275.478-.291.463-2.707,4.657-4.995,8.638h5.759c1.038-1.809,2.571-4.338,3.614-6.155l.106-.172c.03-.049.059-.1.086-.156C1074.754,725.839,1074.689,722.369,1071.953,718.149Z"
                transform="translate(-279.45 -0.097)" />
            <path class="b"
                d="M1057.01,987.216l-.019.034,0,.006-.006.01a3.286,3.286,0,0,0-.511,1.167.661.661,0,0,0,.066.376c0,.01.008.02.013.03a.9.9,0,0,0,.154.233c.19.215.534.323,1.5.311,1.247-.015,1.037,0,1.416-.008a3.072,3.072,0,0,0,2.471-1.022,4.754,4.754,0,0,0,.583-.823q.974-1.688,1.9-3.332c1-1.748,1.74-3.177,2.746-4.931h-5.757C1059.7,982.514,1058.059,985.37,1057.01,987.216Z"
                transform="translate(-279.956 -240.352)" />
            <g transform="translate(730.334 704.02)">
                <path class="b"
                    d="M770.533,961.035q.758,1.286,1.516,2.578H779.3c.544-.947,1.068-1.856,1.486-2.578Z"
                    transform="translate(-764.841 -928.722)" />
                <path class="b"
                    d="M790.807,995.614q.536.922,1.075,1.856c.156.263.312.518.451.722h1.558c.012-.019.024-.037.035-.057.076-.14.44-.765.472-.823l.975-1.7Z"
                    transform="translate(-782.245 -958.405)" />
                <path class="b"
                    d="M751.649,929.034h12.025a4.253,4.253,0,0,0-.3-.608q-.583-.983-1.154-1.969H750.128Q750.89,927.75,751.649,929.034Z"
                    transform="translate(-747.325 -899.039)" />
                <path class="b"
                    d="M741.643,753.022a4.339,4.339,0,0,1,.661-2.318c1.37-2.354,2.787-4.829,4.118-7.158a2.06,2.06,0,0,0,.111-2.264c-1.793-3.149-2.872-5-4.363-7.59-.489-1.047-1.113-1-1.547-.646a3.1,3.1,0,0,0-.485.738c-2.742,4.707-5.493,9.395-8.219,14.112a10.281,10.281,0,0,0-1.585,5.126Z"
                    transform="translate(-730.334 -732.819)" />
                <path class="b"
                    d="M732.386,891.876a6.126,6.126,0,0,0,.641,1.708l.509.87h12.116q-.735-1.287-1.466-2.578Z"
                    transform="translate(-732.096 -869.356)" />
            </g>
            <g transform="translate(744.024 699.27)">
                <path class="b"
                    d="M827.47,701.12c.551.954,1.666,2.893,2.513,4.358,2.847,4.922,5.638,9.866,8.5,14.778q.215.312.391.63a7.71,7.71,0,0,1,.845,3.313c0,.008,0,.016,0,.023h11.623a11.055,11.055,0,0,0-2.1-6.145,10.817,10.817,0,0,1-.641-1.094q-4.119-7.113-8.235-14.229c-.4-.753-.775-1.4-1.072-1.916a2.906,2.906,0,0,0-2.739-1.55c-1.529.007-6.751-.049-8.207.007-.109,0-.435,0-.5,0a.826.826,0,0,0-.826.826,1.008,1.008,0,0,0,.221.6S827.39,700.981,827.47,701.12Z"
                    transform="translate(-827.022 -699.27)" />
                <path class="b" d="M865.323,961.035q-.742,1.289-1.482,2.578H875.82l1.479-2.578Z"
                    transform="translate(-858.628 -923.972)" />
                <path class="b" d="M845.509,995.614q-.738,1.289-1.475,2.578h11.975l1.479-2.578Z"
                    transform="translate(-841.625 -953.655)" />
                <path class="b"
                    d="M828.637,1030.193l-.456.8-.019.034,0,.006-.006.01a3.3,3.3,0,0,0-.511,1.168.664.664,0,0,0,.066.377c0,.01.008.02.013.03a.891.891,0,0,0,.154.233c.19.216.535.348,1.5.312,2.539-.027,4.985-.143,7.521-.039a2.9,2.9,0,0,0,2.5-.993,4.758,4.758,0,0,0,.583-.824q.323-.56.639-1.114Z"
                    transform="translate(-827.549 -983.338)" />
                <path class="b"
                    d="M885.194,926.456c-.213.363-.418.728-.609,1.1l-.112.215-.729,1.264h11.971l1.479-2.578Z"
                    transform="translate(-875.713 -894.289)" />
                <path class="b"
                    d="M904.939,891.876c-.087.238-.185.476-.3.714q-.127.24-.276.478c-.286.456-.564.919-.837,1.386h12.01a11.93,11.93,0,0,0,1.126-2.578Z"
                    transform="translate(-892.697 -864.605)" />
            </g>
        </g>
    </g>
</svg>