<svg xmlns="http://www.w3.org/2000/svg" width="85" height="85" viewBox="0 0 85 85"><defs><style>.a{fill:#fbcbcb;opacity:0;}.b{fill:#fff;}</style></defs><g transform="translate(-112 -73.809)"><rect class="a" width="85" height="85" transform="translate(112 73.809)"/><g transform="translate(113.183 83.822)"><path class="b" d="M972.739,704.021c-.51-.966-.995-1.8-1.375-2.459a3.728,3.728,0,0,0-3.515-1.989c-1.962.009-3.226.009-3.316.009a1.06,1.06,0,0,0-1.06,1.06,1.3,1.3,0,0,0,.284.768s.188.336.291.514c.371.643,2.987,5.242,6.157,10.759h7.612C976.067,709.663,974.481,707.045,972.739,704.021Z" transform="translate(-921.06 -699.518)"/><path class="b" d="M984.418,796.7a13.865,13.865,0,0,1-.822-1.4c-1.037-1.79-2.646-4.738-3.683-6.528h-7.541c2.157,3.75,4.8,8.492,6.1,10.728.184.267.351.537.5.809a9.9,9.9,0,0,1,1.085,4.251,9.691,9.691,0,0,1-.967,3.92q-.163.309-.354.614c-.762,1.213-10.709,18.552-14.165,24.629l-.025.043,0,.008-.007.013a4.215,4.215,0,0,0-.656,1.5.846.846,0,0,0,.084.484c.006.013.01.025.017.038a1.16,1.16,0,0,0,.2.3c.244.276.686.393,1.928.4,1.4.008,1.6-.028,1.782-.026a3.868,3.868,0,0,0,3.212-1.3,6.093,6.093,0,0,0,.748-1.057q1.252-2.169,2.438-4.281,5.013-8.743,10.076-17.56l.135-.221c.039-.063.076-.131.11-.2C988.016,806.578,987.933,802.119,984.418,796.7Z" transform="translate(-921.388 -772.484)"/><path class="b" d="M1076.533,723.494a13.92,13.92,0,0,1-.822-1.4q-5.286-9.128-10.568-18.26c-.51-.966-.995-1.8-1.375-2.459a3.73,3.73,0,0,0-3.515-1.989c-1.962.009-3.226.009-3.315.009a1.06,1.06,0,0,0-1.06,1.06,1.291,1.291,0,0,0,.284.767s.188.336.291.514c.708,1.225,10.46,18.253,14.134,24.557.184.267.351.537.5.809a9.891,9.891,0,0,1,1.084,4.251,9.7,9.7,0,0,1-.966,3.92c-.109.206-.226.41-.354.614-.373.595-3.478,5.983-6.418,11.1h7.4c1.334-2.324,3.3-5.574,4.643-7.908.046-.074.09-.147.135-.221s.076-.131.111-.2C1080.131,733.376,1080.048,728.917,1076.533,723.494Z" transform="translate(-996.654 -699.362)"/><path class="b" d="M1057.165,989.48l-.025.044,0,.008-.008.013a4.215,4.215,0,0,0-.656,1.5.846.846,0,0,0,.084.484c.005.012.01.025.016.038a1.141,1.141,0,0,0,.2.3c.243.276.686.415,1.928.4,1.6-.019,1.333,0,1.819-.011a3.947,3.947,0,0,0,3.175-1.314,6.111,6.111,0,0,0,.748-1.057q1.251-2.169,2.438-4.281c1.288-2.246,2.236-4.082,3.529-6.335h-7.4C1060.617,983.439,1058.513,987.109,1057.165,989.48Z" transform="translate(-997.136 -928.329)"/><g transform="translate(0 6.103)"><path class="b" d="M770.533,961.035q.974,1.652,1.948,3.312H781.8c.7-1.216,1.373-2.385,1.909-3.312Z" transform="translate(-763.22 -919.518)"/><path class="b" d="M790.807,995.614q.689,1.185,1.381,2.385c.2.338.4.665.579.928h2c.015-.024.031-.047.045-.073.1-.18.565-.983.607-1.057l1.252-2.182Z" transform="translate(-779.806 -947.806)"/><path class="b" d="M752.082,929.768h15.451a5.43,5.43,0,0,0-.392-.782q-.748-1.263-1.483-2.53h-15.53Q751.108,928.119,752.082,929.768Z" transform="translate(-746.527 -891.229)"/><path class="b" d="M744.864,758.777a5.576,5.576,0,0,1,.85-2.978c1.76-3.024,3.581-6.2,5.291-9.2a2.647,2.647,0,0,0,.142-2.909c-2.3-4.046-3.691-6.427-5.607-9.752-.628-1.345-1.43-1.284-1.988-.83a4,4,0,0,0-.623.948c-3.523,6.048-7.058,12.071-10.56,18.132a13.212,13.212,0,0,0-2.036,6.586Z" transform="translate(-730.334 -732.819)"/><path class="b" d="M732.386,891.876a7.884,7.884,0,0,0,.824,2.195l.654,1.117h15.568q-.944-1.653-1.884-3.312Z" transform="translate(-732.013 -862.94)"/></g><g transform="translate(17.59)"><path class="b" d="M827.6,701.647c.708,1.226,2.141,3.718,3.229,5.6,3.658,6.323,7.244,12.676,10.922,18.988q.276.4.5.81a9.907,9.907,0,0,1,1.086,4.256c0,.01,0,.02,0,.03H858.27a14.205,14.205,0,0,0-2.693-7.9,13.888,13.888,0,0,1-.823-1.406q-5.293-9.14-10.581-18.282c-.511-.968-1-1.8-1.377-2.462a3.733,3.733,0,0,0-3.519-1.992c-1.964.009-8.675-.064-10.545.009-.14.005-.558,0-.648,0a1.061,1.061,0,0,0-1.061,1.061,1.294,1.294,0,0,0,.284.768S827.494,701.469,827.6,701.647Z" transform="translate(-827.022 -699.27)"/><path class="b" d="M865.745,961.035q-.953,1.655-1.9,3.312h15.391l1.9-3.312Z" transform="translate(-857.143 -913.415)"/><path class="b" d="M845.929,995.614q-.948,1.656-1.9,3.312H859.42l1.9-3.312Z" transform="translate(-840.939 -941.703)"/><path class="b" d="M828.922,1030.193q-.293.514-.586,1.028l-.025.043,0,.008-.008.013a4.237,4.237,0,0,0-.657,1.5.855.855,0,0,0,.084.485c.006.013.01.026.017.038a1.138,1.138,0,0,0,.2.3c.244.277.688.448,1.93.4,3.262-.035,6.405-.184,9.663-.05a3.721,3.721,0,0,0,3.21-1.276,6.131,6.131,0,0,0,.749-1.058q.415-.72.822-1.432Z" transform="translate(-827.525 -969.991)"/><path class="b" d="M885.608,926.456c-.273.466-.538.935-.783,1.412-.047.093-.1.184-.144.276l-.937,1.625h15.381l1.9-3.312Z" transform="translate(-873.425 -885.126)"/><path class="b" d="M905.34,891.876c-.112.306-.238.612-.38.917q-.163.309-.354.615c-.368.586-.725,1.181-1.076,1.78h15.431a15.344,15.344,0,0,0,1.447-3.312Z" transform="translate(-889.612 -856.837)"/></g></g></g></svg>