<svg xmlns="http://www.w3.org/2000/svg" width="16" height="16" viewBox="0 0 16 16"><defs><style>.a{fill:#67c23a;fill-rule:evenodd;}</style></defs><g transform="translate(-3 -3)"><g transform="translate(3 3)"><path class="a" d="M7.982,0A8,8,0,1,1,2.343,2.343,8,8,0,0,1,7.982,0Zm-1,9.55L5.22,7.786a.7.7,0,0,0-.49-.2.659.659,0,0,0-.481.2.648.648,0,0,0-.2.472.694.694,0,0,0,.2.481L6.5,11.01a.688.688,0,0,0,.962,0L12.15,6.325a.638.638,0,0,0,.169-.65.621.621,0,0,0-.481-.481.638.638,0,0,0-.65.169Z" transform="translate(0 0)"/></g></g></svg>